<svg width="19" height="15" viewBox="0 0 19 15" fill="none" xmlns="http://www.w3.org/2000/svg">
<path d="M8.27417 7.5911C8.57876 7.81698 8.96027 7.9404 9.3539 7.9404C9.74754 7.9404 10.129 7.81698 10.4336 7.5911L17.9046 2.03162C17.5887 1.68432 17.1922 1.40435 16.7433 1.21161C16.2944 1.01888 15.8042 0.91812 15.3074 0.916504H3.4004C2.90365 0.91812 2.41339 1.01888 1.9645 1.21161C1.51561 1.40435 1.11912 1.68432 0.803223 2.03162L8.27417 7.5911Z" fill="#DDDDDD"/>
<path d="M11.515 8.78205C10.9056 9.23337 10.1426 9.47992 9.3555 9.47992C8.56837 9.47992 7.80544 9.23337 7.19603 8.78205L0.0589737 3.47095C0.0224382 3.64483 0.00270558 3.82126 0 3.99825V10.9324C0.000961316 11.7495 0.359694 12.5329 0.997485 13.1107C1.63528 13.6884 2.50003 14.0134 3.402 14.0143H15.309C16.211 14.0134 17.0757 13.6884 17.7135 13.1107C18.3513 12.5329 18.71 11.7495 18.711 10.9324V3.99825C18.7083 3.82126 18.6886 3.64483 18.652 3.47095L11.515 8.78205Z" fill="#DDDDDD"/>
</svg>
