<svg width="79" height="129" viewBox="0 0 79 129" fill="none" xmlns="http://www.w3.org/2000/svg">
<path d="M25.9709 5.89557L35.5515 0.427181C35.9769 0.173192 36.2882 0.114768 36.4524 0.216363L37.6196 0.888593C37.8229 1.00543 37.8152 1.34916 37.5651 1.88084L35.2155 6.69309L36.9543 8.25597C37.1387 8.3977 37.2834 8.58417 37.3746 8.7975C37.4659 9.01083 37.5005 9.24389 37.4754 9.47438C37.4502 9.70487 37.366 9.92507 37.2308 10.1139C37.0956 10.3027 36.914 10.4539 36.7034 10.5529L27.1227 16.0687L25.9556 15.3914L25.9709 5.89557Z" fill="#407BFF"/>
<path opacity="0.5" d="M25.9709 5.89557L35.5515 0.427181C35.9769 0.173192 36.2882 0.114768 36.4524 0.216363L37.6196 0.888593C37.8229 1.00543 37.8152 1.34916 37.5651 1.88084L35.2155 6.69309L36.9543 8.25597C37.1387 8.3977 37.2834 8.58417 37.3746 8.7975C37.4659 9.01083 37.5005 9.24389 37.4754 9.47438C37.4502 9.70487 37.366 9.92507 37.2308 10.1139C37.0956 10.3027 36.914 10.4539 36.7034 10.5529L27.1227 16.0687L25.9556 15.3914L25.9709 5.89557Z" fill="white"/>
<path d="M36.7185 1.0516C37.6543 0.512292 38.0345 0.864481 37.5641 1.83303L35.2144 6.64528L36.9533 8.20815C37.1376 8.34989 37.2824 8.53635 37.3736 8.74968C37.4648 8.96301 37.4995 9.19609 37.4743 9.42658C37.4491 9.65706 37.3649 9.87726 37.2298 10.0661C37.0946 10.2549 36.913 10.4061 36.7023 10.5051L27.1191 16.02V6.57585L36.7185 1.0516Z" fill="#407BFF"/>
<path d="M26.0184 36.2931C26.167 36.294 26.3143 36.2655 26.4517 36.2092C26.5891 36.153 26.714 36.0701 26.8189 35.9654C26.9239 35.8607 27.0069 35.7363 27.0631 35.5994C27.1193 35.4625 27.1476 35.3158 27.1464 35.1679V3.43451C27.1231 3.15373 26.9946 2.89192 26.7863 2.70107C26.578 2.51023 26.3053 2.4043 26.0222 2.4043C25.7391 2.4043 25.4663 2.51023 25.2581 2.70107C25.0498 2.89192 24.9213 3.15373 24.898 3.43451V35.1679C24.8968 35.3151 24.9248 35.4612 24.9806 35.5976C25.0363 35.734 25.1186 35.8581 25.2228 35.9627C25.3269 36.0673 25.4508 36.1503 25.5874 36.207C25.7239 36.2637 25.8704 36.293 26.0184 36.2931Z" fill="#455A64"/>
<path d="M67.2298 120.791V118.815H66.7534C66.0097 117.482 64.8904 116.396 63.5335 115.69C58.5824 112.838 50.5611 112.838 45.6108 115.69C44.2515 116.393 43.1312 117.48 42.3909 118.815H41.9043V120.729C41.9043 122.627 43.0953 124.534 45.6091 125.978C50.5602 128.829 58.5815 128.829 63.5318 125.978C65.9682 124.549 67.2451 122.666 67.2298 120.791Z" fill="#263238"/>
<path d="M54.5628 126.112C61.5628 126.112 67.2375 122.845 67.2375 118.815C67.2375 114.785 61.5628 111.518 54.5628 111.518C47.5628 111.518 41.8882 114.785 41.8882 118.815C41.8882 122.845 47.5628 126.112 54.5628 126.112Z" fill="#455A64"/>
<path d="M51.2964 50.0898V117.947C51.3236 118.233 51.4263 118.506 51.5941 118.74C51.7619 118.973 51.9888 119.158 52.2517 119.276C52.9663 119.638 53.7569 119.827 54.5588 119.827C55.3608 119.827 56.1514 119.638 56.8659 119.276C57.1299 119.159 57.3577 118.975 57.5257 118.741C57.6937 118.508 57.7957 118.233 57.8213 117.947V50.0898H51.2964Z" fill="#37474F"/>
<path d="M57.8213 58.2998V64.6826L51.2964 68.4323V62.0656L57.8213 58.2998Z" fill="#263238"/>
<path d="M34.1649 44.0183L22.1011 50.9717C22.1621 51.0707 22.2418 51.1569 22.3359 51.2257L43.4393 63.374C43.6196 63.4756 43.7609 63.374 43.7609 63.1784V48.011C43.7028 45.0939 43.1053 42.2125 41.9982 39.5109L34.1649 44.0183Z" fill="#407BFF"/>
<path opacity="0.4" d="M34.1649 44.0183L22.1011 50.9717C22.1621 51.0707 22.2418 51.1569 22.3359 51.2257L43.4393 63.374C43.6196 63.4756 43.7609 63.374 43.7609 63.1784V48.011C43.7028 45.0939 43.1053 42.2125 41.9982 39.5109L34.1649 44.0183Z" fill="black"/>
<path d="M22.0073 34.057V51.0488L41.9989 39.5177L41.9283 39.3535C39.7896 34.0096 36.2022 29.4869 32.2855 27.2365C30.9286 26.3832 29.3696 25.9008 27.7657 25.8379C24.209 25.8387 22.0073 28.9873 22.0073 34.057Z" fill="#407BFF"/>
<path opacity="0.3" d="M22.0073 34.057V51.0488L41.9989 39.5177L41.9283 39.3535C39.7896 34.0096 36.2022 29.4869 32.2855 27.2365C30.9286 26.3832 29.3696 25.9008 27.7657 25.8379C24.209 25.8387 22.0073 28.9873 22.0073 34.057Z" fill="black"/>
<path d="M0.300781 69.9703V68.4548H0.449657V68.6732C0.539507 68.2525 0.670574 67.8416 0.840981 67.4464C1.92383 65.2438 3.69346 63.4488 5.88566 62.3294L20.1664 54.1027C20.501 53.9369 20.8697 53.8506 21.2434 53.8506C21.6172 53.8506 21.9859 53.9369 22.3204 54.1027L44.1597 66.6726C44.429 66.4495 44.6615 66.1859 44.8488 65.8912V67.4532C44.8353 67.586 44.7879 67.7131 44.7111 67.8225C44.6342 67.9319 44.5305 68.0198 44.4098 68.078L30.118 76.2963C25.9283 78.54 21.22 79.6494 16.4642 79.5135C12.5036 79.5581 8.59535 78.611 5.09875 76.7594C1.88734 74.9239 0.305032 72.478 0.305032 69.9863L0.300781 69.9703Z" fill="#407BFF"/>
<path opacity="0.4" d="M0.300781 69.9703V68.4548H0.449657V68.6732C0.539507 68.2525 0.670574 67.8416 0.840981 67.4464C1.92383 65.2438 3.69346 63.4488 5.88566 62.3294L20.1664 54.1027C20.501 53.9369 20.8697 53.8506 21.2434 53.8506C21.6172 53.8506 21.9859 53.9369 22.3204 54.1027L44.1597 66.6726C44.429 66.4495 44.6615 66.1859 44.8488 65.8912V67.4532C44.8353 67.586 44.7879 67.7131 44.7111 67.8225C44.6342 67.9319 44.5305 68.0198 44.4098 68.078L30.118 76.2963C25.9283 78.54 21.22 79.6494 16.4642 79.5135C12.5036 79.5581 8.59535 78.611 5.09875 76.7594C1.88734 74.9239 0.305032 72.478 0.305032 69.9863L0.300781 69.9703Z" fill="black"/>
<path d="M0.840858 67.4562C1.92371 65.2536 3.69333 63.4586 5.88554 62.3392L20.1663 54.1125C20.5009 53.9467 20.8695 53.8604 21.2433 53.8604C21.6171 53.8604 21.9857 53.9467 22.3203 54.1125L44.1596 66.6748L30.123 74.7525C25.9318 76.9925 21.2246 78.1016 16.4691 77.9697C12.5084 78.0097 8.60075 77.0617 5.10288 75.2122C2.21985 73.5562 0.646047 71.4235 0.355957 69.1969C0.433699 68.5961 0.597268 68.0093 0.841709 67.4545L0.840858 67.4562Z" fill="#407BFF"/>
<path opacity="0.2" d="M0.840858 67.4562C1.92371 65.2536 3.69333 63.4586 5.88554 62.3392L20.1663 54.1125C20.5009 53.9467 20.8695 53.8604 21.2433 53.8604C21.6171 53.8604 21.9857 53.9467 22.3203 54.1125L44.1596 66.6748L30.123 74.7525C25.9318 76.9925 21.2246 78.1016 16.4691 77.9697C12.5084 78.0097 8.60075 77.0617 5.10288 75.2122C2.21985 73.5562 0.646047 71.4235 0.355957 69.1969C0.433699 68.5961 0.597268 68.0093 0.841709 67.4545L0.840858 67.4562Z" fill="black"/>
<path d="M0.355351 69.2069C0.431638 68.6009 0.595234 68.0089 0.841103 67.4493C1.92395 65.2467 3.69358 63.4517 5.88578 62.3323L20.1666 54.1055C20.5011 53.9397 20.8698 53.8534 21.2436 53.8534C21.6173 53.8534 21.986 53.9397 22.3205 54.1055L44.1581 66.6755L44.4091 66.5349C44.5389 66.4903 44.6515 66.4065 44.7312 66.2952C44.8109 66.1839 44.8538 66.0506 44.8538 65.9139C44.8538 65.7772 44.8109 65.644 44.7312 65.5327C44.6515 65.4213 44.5389 65.3375 44.4091 65.2929L22.3205 52.6129C21.9876 52.4417 21.6183 52.3523 21.2436 52.3523C20.8688 52.3523 20.4995 52.4417 20.1666 52.6129L5.88578 60.8397C3.69707 61.9638 1.92876 63.7574 0.841103 65.9567C0.579086 66.5498 0.410093 67.1794 0.340034 67.8235C0.288896 68.2833 0.294042 68.7475 0.355351 69.206V69.2069Z" fill="#407BFF"/>
<path opacity="0.3" d="M0.355351 69.2069C0.431638 68.6009 0.595234 68.0089 0.841103 67.4493C1.92395 65.2467 3.69358 63.4517 5.88578 62.3323L20.1666 54.1055C20.5011 53.9397 20.8698 53.8534 21.2436 53.8534C21.6173 53.8534 21.986 53.9397 22.3205 54.1055L44.1581 66.6755L44.4091 66.5349C44.5389 66.4903 44.6515 66.4065 44.7312 66.2952C44.8109 66.1839 44.8538 66.0506 44.8538 65.9139C44.8538 65.7772 44.8109 65.644 44.7312 65.5327C44.6515 65.4213 44.5389 65.3375 44.4091 65.2929L22.3205 52.6129C21.9876 52.4417 21.6183 52.3523 21.2436 52.3523C20.8688 52.3523 20.4995 52.4417 20.1666 52.6129L5.88578 60.8397C3.69707 61.9638 1.92876 63.7574 0.841103 65.9567C0.579086 66.5498 0.410093 67.1794 0.340034 67.8235C0.288896 68.2833 0.294042 68.7475 0.355351 69.206V69.2069Z" fill="black"/>
<path d="M43.9276 65.0808L21.8433 52.3619L22.3367 51.2139L43.4401 63.3698L43.9276 65.0808Z" fill="#407BFF"/>
<path opacity="0.1" d="M43.9276 65.0808L21.8433 52.3619L22.3367 51.2139L43.4401 63.3698L43.9276 65.0808Z" fill="black"/>
<path d="M23.958 33.0822C23.9672 32.9006 24.0196 32.7238 24.1109 32.5663C24.2021 32.4089 24.3296 32.2752 24.4829 32.1763L51.3652 16.677C51.527 16.5922 51.7071 16.5479 51.89 16.5479C52.073 16.5479 52.2531 16.5922 52.4149 16.677L53.0104 17.0207C53.1637 17.1196 53.2912 17.2533 53.3824 17.4108C53.4737 17.5683 53.5261 17.7451 53.5353 17.9266V38.4811C53.5248 38.6624 53.4719 38.8387 53.3807 38.996C53.2896 39.1533 53.1628 39.2872 53.0104 39.387L26.1282 54.8702C25.9637 54.9509 25.7828 54.9928 25.5994 54.9928C25.4161 54.9928 25.2352 54.9509 25.0707 54.8702L24.4829 54.5265C24.3305 54.4266 24.2037 54.2927 24.1126 54.1354C24.0214 53.9781 23.9685 53.8018 23.958 53.6206V33.0822Z" fill="#F5F5F5"/>
<path d="M24.1069 32.535L25.6033 33.3944L53.3805 17.3931C53.2942 17.2309 53.1673 17.0936 53.0122 16.9943L52.4167 16.6556C52.2549 16.5708 52.0747 16.5265 51.8918 16.5265C51.7089 16.5265 51.5287 16.5708 51.3669 16.6556L24.4515 32.1439C24.3043 32.2418 24.1855 32.3763 24.1069 32.5342V32.535Z" fill="#E0E0E0"/>
<path d="M25.5957 33.3872L25.8739 33.5497C25.7876 33.5868 25.715 33.6494 25.666 33.7292C25.6169 33.8089 25.5939 33.9018 25.6 33.9951V54.5495C25.5923 54.6164 25.6036 54.684 25.6326 54.7448C25.6617 54.8056 25.7072 54.857 25.7641 54.8933C25.8447 54.9251 25.9345 54.9251 26.0151 54.8933L26.1248 54.8467L53.0173 39.3703C53.1693 39.27 53.2958 39.136 53.3868 38.9788C53.4779 38.8216 53.5311 38.6455 53.5422 38.4644V17.9108C53.5352 17.726 53.4814 17.546 53.3857 17.3876L25.5957 33.3872Z" fill="#EBEBEB"/>
<path opacity="0.2" d="M25.6034 33.394L38.0509 38.0267C38.4811 38.1902 38.9546 38.2017 39.3923 38.0595C39.83 37.9173 40.2054 37.6299 40.4558 37.2453L42.4695 34.183L53.4835 17.3351L42.8497 34.3033L53.5346 38.4754C53.5282 38.6614 53.4715 38.8422 53.3704 38.9987L42.8217 34.3507L40.472 38.0614C40.2145 38.474 39.816 38.7801 39.3498 38.9237C38.8836 39.0673 38.381 39.0386 37.9344 38.8429L36.2814 38.1165L25.7327 54.9052C25.6784 54.8667 25.6353 54.8147 25.6078 54.7543C25.5803 54.6939 25.5694 54.6274 25.5762 54.5614V54.1787L36.261 38.0851L25.6034 33.394Z" fill="black"/>
<path d="M30.3188 36.6833C30.3299 36.5022 30.3831 36.3261 30.4742 36.1689C30.5653 36.0117 30.6918 35.8777 30.8437 35.7774L57.7362 20.301C57.898 20.2162 58.0782 20.1719 58.2611 20.1719C58.444 20.1719 58.6242 20.2162 58.786 20.301L59.3815 20.6397C59.5334 20.74 59.6599 20.874 59.751 21.0312C59.8421 21.1884 59.8953 21.3645 59.9064 21.5456V42.1001C59.8948 42.2822 59.8415 42.4594 59.7505 42.6179C59.6595 42.7764 59.5333 42.912 59.3815 43.0144L32.489 58.4908C32.3272 58.5757 32.147 58.6201 31.9641 58.6201C31.7812 58.6201 31.601 58.5757 31.4392 58.4908L30.8437 58.1522C30.6918 58.0519 30.5653 57.9179 30.4742 57.7607C30.3831 57.6035 30.3299 57.4274 30.3188 57.2463V36.6833Z" fill="#F5F5F5"/>
<path d="M30.4756 36.2073L31.9643 37.0666L59.75 21.028C59.6611 20.8699 59.5347 20.7359 59.3817 20.6377L58.7862 20.2991C58.6244 20.2143 58.4442 20.1699 58.2613 20.1699C58.0784 20.1699 57.8982 20.2143 57.7364 20.2991L30.8439 35.7755C30.6859 35.8848 30.559 36.033 30.4756 36.2056V36.2073Z" fill="#E0E0E0"/>
<path d="M31.9642 37.0277L32.2382 37.1919C32.1519 37.229 32.0793 37.2916 32.0302 37.3714C31.9812 37.4511 31.9581 37.544 31.9642 37.6373V58.1918C31.9566 58.2586 31.9679 58.3262 31.9969 58.387C32.026 58.4477 32.0715 58.4992 32.1284 58.5355C32.209 58.5673 32.2988 58.5673 32.3794 58.5355L32.4891 58.4889L59.3816 43.0125C59.5336 42.9122 59.66 42.7782 59.7511 42.621C59.8422 42.4638 59.8954 42.2878 59.9065 42.1066V21.5513C59.8995 21.3665 59.8457 21.1865 59.75 21.0281L31.9642 37.0277Z" fill="#EBEBEB"/>
<path opacity="0.2" d="M31.9642 37.0273L44.4194 41.6753C44.8488 41.8353 45.3201 41.8452 45.7558 41.7031C46.1915 41.5611 46.5657 41.2757 46.8167 40.8939L48.8218 37.8392L59.8512 20.9727L49.2174 37.9408L59.9022 42.1122C59.8863 42.2963 59.8302 42.4749 59.738 42.6354L49.1893 37.9476L46.8397 41.6584C46.5824 42.0691 46.1852 42.374 45.7207 42.5175C45.2563 42.661 44.7554 42.6334 44.3097 42.4398L42.6465 41.7151L32.1284 58.5342C32.0715 58.498 32.026 58.4465 31.9969 58.3858C31.9679 58.325 31.9566 58.2574 31.9642 58.1905V57.8468L42.6253 41.7219L31.9642 37.0273Z" fill="black"/>
<path d="M36.687 40.3247C36.6962 40.1431 36.7486 39.9664 36.8399 39.8089C36.9311 39.6514 37.0586 39.5177 37.2119 39.4188L64.0942 23.9348C64.2571 23.8536 64.4368 23.8114 64.6191 23.8114C64.8013 23.8114 64.981 23.8536 65.1439 23.9348L65.7394 24.2785C65.8927 24.3774 66.0202 24.5111 66.1114 24.6686C66.2027 24.8261 66.2551 25.0029 66.2643 25.1844V45.7389C66.2551 45.9205 66.2027 46.0972 66.1114 46.2547C66.0202 46.4122 65.8927 46.5459 65.7394 46.6448L38.8572 62.1288C38.6927 62.2095 38.5118 62.2514 38.3284 62.2514C38.1451 62.2514 37.9642 62.2095 37.7997 62.1288L37.2119 61.7851C37.0586 61.6862 36.9311 61.5525 36.8399 61.395C36.7486 61.2375 36.6962 61.0607 36.687 60.8792V40.3247Z" fill="#F5F5F5"/>
<path d="M36.8359 39.8088L38.3323 40.6682L66.1095 24.6669C66.0228 24.5072 65.8959 24.3727 65.7412 24.2766L65.1457 23.9328C64.9827 23.8517 64.803 23.8094 64.6208 23.8094C64.4386 23.8094 64.2589 23.8517 64.0959 23.9328L37.2137 39.4169C37.0566 39.5125 36.927 39.6469 36.8376 39.8071L36.8359 39.8088Z" fill="#E0E0E0"/>
<path d="M38.4497 62.2382C38.4162 62.2465 38.3812 62.2465 38.3477 62.2382C38.3632 62.2471 38.3808 62.2518 38.3987 62.2518C38.4166 62.2518 38.4342 62.2471 38.4497 62.2382Z" fill="#407BFF"/>
<path d="M38.3236 40.6606L38.5975 40.8248C38.5112 40.8618 38.4386 40.9245 38.3896 41.0043C38.3405 41.084 38.3175 41.1769 38.3236 41.2701V61.8323C38.316 61.8984 38.3274 61.9653 38.3564 62.0252C38.3855 62.0852 38.431 62.1357 38.4878 62.1709C38.5683 62.2027 38.6581 62.2027 38.7387 62.1709L38.8485 62.132L65.7409 46.648C65.8942 46.5491 66.0217 46.4154 66.1129 46.2579C66.2042 46.1004 66.2566 45.9236 66.2658 45.7421V25.1918C66.2588 25.007 66.205 24.827 66.1093 24.6686L38.3236 40.6606Z" fill="#EBEBEB"/>
<path opacity="0.2" d="M38.3322 40.6688L50.7797 45.3058C51.2102 45.4663 51.6828 45.4764 52.1198 45.3344C52.5568 45.1924 52.9323 44.9068 53.1847 44.5243L55.1821 41.4697L66.2115 24.6141L55.5777 41.5747L66.2626 45.7469C66.2562 45.9328 66.1995 46.1136 66.0984 46.2701L55.5496 41.6221L53.2 45.3329C52.9425 45.7454 52.544 46.0516 52.0778 46.1951C51.6116 46.3387 51.109 46.31 50.6623 46.1143L49.0094 45.3803L38.4607 62.169C38.4052 62.1317 38.3611 62.0798 38.3335 62.0192C38.3059 61.9585 38.2957 61.8913 38.3042 61.8252V61.4764L48.9575 45.3515L38.3322 40.6688Z" fill="black"/>
<path d="M24.8037 25.2698C26.9424 24.1523 29.7778 24.3478 32.8803 26.1444C36.3682 28.1365 39.5073 31.7618 41.7089 35.9094C42.221 36.8722 42.6813 37.8613 43.0879 38.8726C44.2969 41.765 44.948 44.8579 45.0071 47.99V65.3459C45.3805 65.3508 45.7494 65.2636 46.0807 65.0919L77.0115 47.2611C77.3235 47.0549 77.5829 46.7793 77.7693 46.4559C77.9557 46.1326 78.0638 45.7706 78.085 45.3985V28.9493C78.085 20.731 72.6567 10.9813 65.9668 7.0749C62.8336 5.24703 59.9114 5.09802 57.7498 6.29346L24.8037 25.2698Z" fill="#407BFF"/>
<path opacity="0.2" d="M24.8037 25.2698C26.9424 24.1523 29.7778 24.3478 32.8803 26.1444C36.3682 28.1365 39.5073 31.7618 41.7089 35.9094C42.221 36.8722 42.6813 37.8613 43.0879 38.8726C44.2969 41.765 44.948 44.8579 45.0071 47.99V65.3459C45.3805 65.3508 45.7494 65.2636 46.0807 65.0919L77.0115 47.2611C77.3235 47.0549 77.5829 46.7793 77.7693 46.4559C77.9557 46.1326 78.0638 45.7706 78.085 45.3985V28.9493C78.085 20.731 72.6567 10.9813 65.9668 7.0749C62.8336 5.24703 59.9114 5.09802 57.7498 6.29346L24.8037 25.2698Z" fill="black"/>
<path opacity="0.1" d="M77.0139 47.2607L46.0797 65.1119C45.7484 65.2835 45.3795 65.3708 45.0061 65.3659V48.0099C44.9948 46.3765 44.8005 44.7494 44.4268 43.1588L77.5192 24.1045C77.8867 25.6934 78.0784 27.3176 78.0908 28.9481V45.4006C78.0696 45.7727 77.9615 46.1348 77.7751 46.4581C77.5887 46.7814 77.3293 47.0571 77.0173 47.2632L77.0139 47.2607Z" fill="black"/>
<path d="M43.0877 38.8947C44.2967 41.787 44.9477 44.88 45.0068 48.0121V65.3477C45.1385 65.3442 45.2695 65.3286 45.3982 65.3011C45.3982 64.3089 45.3982 58.7465 45.3982 48.0121C45.3982 35.2703 35.5674 27.1689 32.8647 26.1377C36.3526 28.1298 39.4917 31.7551 41.6934 35.9027C42.2115 36.8745 42.677 37.8733 43.0877 38.8947Z" fill="#407BFF"/>
<path opacity="0.4" d="M43.0877 38.8947C44.2967 41.787 44.9477 44.88 45.0068 48.0121V65.3477C45.1385 65.3442 45.2695 65.3286 45.3982 65.3011C45.3982 64.3089 45.3982 58.7465 45.3982 48.0121C45.3982 35.2703 35.5674 27.1689 32.8647 26.1377C36.3526 28.1298 39.4917 31.7551 41.6934 35.9027C42.2115 36.8745 42.677 37.8733 43.0877 38.8947Z" fill="black"/>
<path d="M43.44 63.3712C43.4715 63.3961 43.5099 63.4109 43.55 63.4137C43.5902 63.4165 43.6303 63.4072 43.665 63.387C43.6997 63.3668 43.7275 63.3366 43.7448 63.3004C43.762 63.2642 43.7678 63.2237 43.7615 63.1841V48.0159C43.7051 45.0986 43.1076 42.2169 41.9989 39.5157L41.9283 39.3515C41.5011 38.2813 41.0094 37.2377 40.4557 36.2266C38.317 32.2974 35.4187 29.0302 32.2889 27.2345C30.932 26.3812 29.373 25.8988 27.7691 25.8359C26.9506 25.8298 26.1433 26.0259 25.4195 26.4065C23.3047 27.5317 22.0669 30.2502 22.0669 34.055V50.6565C22.0738 50.7674 22.1064 50.8752 22.1622 50.9714C22.218 51.0676 22.2954 51.1497 22.3884 51.2111L21.9027 52.3591L21.793 52.2964C21.6256 52.1734 21.4754 52.0288 21.3463 51.8664C21.0337 51.479 20.8525 51.003 20.8291 50.5067V34.0592C20.8291 29.6567 22.3961 26.5987 24.8631 25.3016C27.0018 24.1765 29.8372 24.3704 32.9397 26.1686C36.4276 28.1607 39.5667 31.7775 41.7683 35.9421C42.2801 36.9015 42.7404 37.8873 43.1473 38.8951C44.3555 41.7887 45.0049 44.883 45.0614 48.0159V65.3363H44.819C44.5062 65.3174 44.2013 65.2307 43.9257 65.0823L43.44 63.3712Z" fill="#407BFF"/>
<path opacity="0.1" d="M43.44 63.3712C43.4715 63.3961 43.5099 63.4109 43.55 63.4137C43.5902 63.4165 43.6303 63.4072 43.665 63.387C43.6997 63.3668 43.7275 63.3366 43.7448 63.3004C43.762 63.2642 43.7678 63.2237 43.7615 63.1841V48.0159C43.7051 45.0986 43.1076 42.2169 41.9989 39.5157L41.9283 39.3515C41.5011 38.2813 41.0094 37.2377 40.4557 36.2266C38.317 32.2974 35.4187 29.0302 32.2889 27.2345C30.932 26.3812 29.373 25.8988 27.7691 25.8359C26.9506 25.8298 26.1433 26.0259 25.4195 26.4065C23.3047 27.5317 22.0669 30.2502 22.0669 34.055V50.6565C22.0738 50.7674 22.1064 50.8752 22.1622 50.9714C22.218 51.0676 22.2954 51.1497 22.3884 51.2111L21.9027 52.3591L21.793 52.2964C21.6256 52.1734 21.4754 52.0288 21.3463 51.8664C21.0337 51.479 20.8525 51.003 20.8291 50.5067V34.0592C20.8291 29.6567 22.3961 26.5987 24.8631 25.3016C27.0018 24.1765 29.8372 24.3704 32.9397 26.1686C36.4276 28.1607 39.5667 31.7775 41.7683 35.9421C42.2801 36.9015 42.7404 37.8873 43.1473 38.8951C44.3555 41.7887 45.0049 44.883 45.0614 48.0159V65.3363H44.819C44.5062 65.3174 44.2013 65.2307 43.9257 65.0823L43.44 63.3712Z" fill="black"/>
</svg>
