<svg width="255" height="278" viewBox="0 0 255 278" fill="none" xmlns="http://www.w3.org/2000/svg">
<path d="M248.868 221.252C248.773 222.548 248.372 223.805 247.698 224.919C247.025 226.033 246.097 226.974 244.991 227.666L160.617 276.234C159.416 276.837 158.089 277.152 156.743 277.152C155.398 277.152 154.071 276.837 152.87 276.234L4.33759 190.713C3.16609 190.096 2.18578 189.172 1.50205 188.042C0.818319 186.912 0.457031 185.618 0.457031 184.299C0.457031 182.979 0.818319 181.685 1.50205 180.555C2.18578 179.425 3.16609 178.502 4.33759 177.885L88.696 129.3C89.8957 128.691 91.2232 128.374 92.5697 128.374C93.9163 128.374 95.2437 128.691 96.4434 129.3L244.991 214.83C246.097 215.523 247.025 216.466 247.698 217.581C248.372 218.696 248.773 219.954 248.868 221.252Z" fill="#37474F"/>
<path d="M244.991 219.291L160.616 267.875C159.417 268.484 158.089 268.801 156.743 268.801C155.396 268.801 154.069 268.484 152.869 267.875L4.33582 182.346C2.18949 181.112 2.18949 179.112 4.33582 177.885L88.6994 129.3C89.8991 128.691 91.2265 128.374 92.573 128.374C93.9196 128.374 95.247 128.691 96.4467 129.3L244.991 214.83C247.129 216.079 247.129 218.064 244.991 219.291Z" fill="#455A64"/>
<path d="M156.755 268.806V277.173C158.117 277.207 159.465 276.889 160.668 276.251L244.987 227.666C246.124 227.069 247.082 226.182 247.763 225.097C248.444 224.011 248.823 222.766 248.863 221.487C248.903 220.208 248.601 218.941 247.989 217.816C247.377 216.69 246.476 215.746 245.379 215.08C247.117 216.322 246.946 218.142 244.987 219.299L160.613 267.884C159.424 268.51 158.095 268.827 156.75 268.806H156.755Z" fill="#263238"/>
<path d="M252.503 214.97C254.508 213.814 254.399 211.845 254.399 209.4V93.1917C254.318 91.8489 253.922 90.5436 253.243 89.3807C252.563 88.2179 251.619 87.23 250.485 86.4966L101.975 0.967489C100.824 0.358765 99.5441 0.0288099 98.2403 0.00439149C96.9365 -0.0200269 95.6452 0.261779 94.4713 0.826948C92.4577 1.98344 92.5675 3.95186 92.5675 6.40455V122.605C92.6403 123.945 93.0293 125.25 93.7029 126.413C94.3766 127.576 95.3159 128.565 96.445 129.3L244.991 214.83C246.143 215.44 247.425 215.771 248.73 215.796C250.036 215.82 251.329 215.537 252.503 214.97Z" fill="#37474F"/>
<path d="M92.5678 6.39717C92.5678 3.93602 94.3066 2.94376 96.4453 4.17053L244.991 89.7081C246.139 90.4167 247.083 91.4082 247.733 92.5867L253.256 89.3839C252.605 88.2027 251.661 87.2075 250.514 86.4935L101.983 0.967732C100.831 0.356966 99.5495 0.0258802 98.244 0.001457C96.9385 -0.0229662 95.6456 0.259964 94.4708 0.827191C92.4657 2.02263 92.5678 3.93687 92.5678 6.39717Z" fill="#455A64"/>
<path d="M245.445 215.063C246.555 215.563 247.762 215.813 248.981 215.797C250.199 215.781 251.399 215.498 252.495 214.969C254.5 213.813 254.399 211.844 254.399 209.399V93.1915C254.355 91.8472 253.964 90.5367 253.263 89.3867L247.734 92.5819C248.429 93.7347 248.819 95.0445 248.866 96.3884V212.603C248.866 214.884 247.372 215.915 245.445 215.063Z" fill="#263238"/>
<path d="M242.868 94.1603L99.688 11.7172C98.4035 10.9357 97.3384 11.5766 97.3384 13.0531V114.518C97.384 115.324 97.6206 116.108 98.029 116.806C98.4373 117.504 99.0058 118.096 99.688 118.533L242.868 200.958C244.153 201.692 245.218 201.099 245.218 199.615V98.1776C245.171 97.3712 244.934 96.5872 244.526 95.8892C244.118 95.1912 243.55 94.5988 242.868 94.1603Z" fill="#FAFAFA"/>
<path d="M234.252 215.061L96.3831 135.665C95.784 135.36 95.1209 135.201 94.4481 135.201C93.7754 135.201 93.1123 135.36 92.5132 135.665L90.2163 136.923C89.9816 137.002 89.7777 137.152 89.6332 137.352C89.4888 137.553 89.4111 137.793 89.4111 138.04C89.4111 138.286 89.4888 138.527 89.6332 138.727C89.7777 138.928 89.9816 139.078 90.2163 139.157L228.087 218.533C228.692 218.843 229.363 219.004 230.043 219.004C230.724 219.004 231.395 218.843 232 218.533L234.271 217.291C235.341 216.67 235.341 215.674 234.252 215.061Z" fill="#263238"/>
<path d="M223.457 221.472L85.5885 142.083C85.0546 141.778 84.4563 141.602 83.8415 141.568C83.2267 141.534 82.6125 141.643 82.0479 141.888L46.1592 162.558C45.2736 163.066 45.4225 163.98 46.4884 164.597L184.193 243.876C184.729 244.18 185.328 244.356 185.943 244.392C186.559 244.427 187.174 244.32 187.741 244.079L223.775 223.506C224.671 223.002 224.522 222.088 223.457 221.472Z" fill="#263238"/>
<path d="M103.983 175.456L99.6591 172.972C99.4788 172.87 99.4635 172.706 99.6591 172.613L103.788 170.269C103.885 170.221 103.992 170.196 104.101 170.196C104.21 170.196 104.317 170.221 104.415 170.269L108.731 172.762C108.919 172.863 108.934 173.028 108.731 173.121L104.603 175.464C104.506 175.512 104.4 175.536 104.292 175.534C104.184 175.533 104.078 175.506 103.983 175.456ZM110.25 166.863L114.567 169.347C114.755 169.448 114.77 169.612 114.606 169.706L110.478 172.049C110.38 172.097 110.273 172.122 110.164 172.122C110.055 172.122 109.948 172.097 109.851 172.049L105.534 169.557C105.346 169.455 105.331 169.291 105.495 169.198L109.623 166.854C109.725 166.8 109.838 166.772 109.953 166.774C110.068 166.775 110.181 166.805 110.281 166.862L110.25 166.863ZM124.202 174.894L131.503 179.096C131.691 179.198 131.706 179.362 131.542 179.455L127.413 181.838C127.316 181.886 127.209 181.911 127.1 181.911C126.991 181.911 126.884 181.886 126.786 181.838L119.478 177.627C119.298 177.525 119.282 177.361 119.478 177.268L123.614 174.924C123.705 174.866 123.808 174.829 123.916 174.818C124.023 174.808 124.132 174.822 124.233 174.862L124.202 174.894ZM116.564 170.491L120.881 172.975C121.061 173.077 121.076 173.241 120.92 173.334L116.784 175.678C116.686 175.726 116.579 175.751 116.47 175.751C116.362 175.751 116.254 175.726 116.157 175.678L111.84 173.185C111.66 173.084 111.645 172.919 111.84 172.826L115.976 170.483C116.07 170.43 116.175 170.401 116.283 170.397C116.39 170.393 116.497 170.414 116.595 170.459L116.564 170.491ZM133.498 180.244L137.814 182.728C137.994 182.837 138.01 182.993 137.853 183.087L133.717 185.43C133.62 185.478 133.512 185.502 133.404 185.502C133.295 185.502 133.188 185.478 133.09 185.43L128.774 182.946C128.593 182.837 128.578 182.68 128.735 182.579L132.871 180.235C132.969 180.176 133.082 180.143 133.197 180.139C133.312 180.135 133.426 180.16 133.529 180.211L133.498 180.244ZM139.804 183.876L144.167 186.332C144.355 186.441 144.37 186.598 144.167 186.691L140.039 189.073C139.941 189.121 139.834 189.146 139.725 189.146C139.616 189.146 139.509 189.121 139.412 189.073L135.095 186.589C134.907 186.48 134.892 186.323 135.056 186.222L139.185 183.878C139.282 183.819 139.392 183.786 139.506 183.78C139.619 183.775 139.732 183.798 139.834 183.847L139.804 183.876ZM123.62 193.58L119.296 191.096C119.116 190.986 119.1 190.83 119.296 190.737L123.424 188.393C123.521 188.343 123.629 188.317 123.738 188.317C123.847 188.317 123.955 188.343 124.051 188.393L128.368 190.877C128.556 190.986 128.571 191.143 128.407 191.236L124.279 193.619C124.176 193.656 124.066 193.67 123.957 193.657C123.848 193.645 123.743 193.608 123.652 193.548L123.62 193.58ZM129.926 197.213L125.61 194.729C125.43 194.619 125.407 194.463 125.571 194.37L129.699 191.987C129.797 191.937 129.906 191.911 130.017 191.911C130.127 191.911 130.236 191.937 130.334 191.987L134.65 194.471C134.831 194.58 134.846 194.737 134.65 194.83L130.522 197.174C130.433 197.214 130.338 197.235 130.241 197.236C130.144 197.237 130.047 197.219 129.958 197.181L129.926 197.213ZM136.24 200.845L131.915 198.361C131.735 198.252 131.72 198.096 131.915 198.002L136.044 195.62C136.141 195.57 136.248 195.544 136.357 195.544C136.466 195.544 136.574 195.57 136.671 195.62L140.987 198.113C141.175 198.222 141.191 198.378 141.026 198.472L136.898 200.854C136.798 200.898 136.689 200.918 136.58 200.911C136.47 200.904 136.365 200.871 136.271 200.815L136.24 200.845ZM142.601 204.447L138.285 201.963C138.097 201.854 138.081 201.697 138.285 201.604L142.413 199.222C142.51 199.172 142.617 199.145 142.726 199.145C142.836 199.145 142.943 199.172 143.04 199.222L147.301 201.729C147.481 201.839 147.497 201.995 147.301 202.088L143.173 204.471C143.081 204.509 142.983 204.526 142.884 204.522C142.785 204.518 142.688 204.493 142.6 204.448L142.601 204.447ZM110.311 179.058L105.994 176.574C105.814 176.473 105.791 176.308 105.955 176.215L110.084 173.872C110.181 173.824 110.288 173.798 110.397 173.798C110.506 173.798 110.613 173.824 110.711 173.872L115.035 176.364C115.215 176.466 115.23 176.63 115.035 176.723L110.906 179.067C110.81 179.114 110.704 179.138 110.596 179.137C110.489 179.136 110.383 179.109 110.288 179.059L110.311 179.058ZM117.361 189.917L107.733 184.37C107.545 184.268 107.53 184.104 107.733 184.011L117.76 178.238C117.858 178.19 117.967 178.165 118.077 178.165C118.187 178.165 118.295 178.19 118.394 178.238L123.368 181.105C123.556 181.215 123.572 181.379 123.407 181.473L118.096 184.528C117.932 184.621 117.955 184.782 118.136 184.886L122.06 187.172C122.24 187.282 122.256 187.438 122.06 187.531L117.931 189.914C117.838 189.957 117.737 189.98 117.634 189.98C117.531 189.98 117.429 189.957 117.336 189.914L117.361 189.917ZM146.172 187.48L150.433 189.964C150.614 190.073 150.629 190.23 150.433 190.323L146.305 192.705C146.208 192.753 146.1 192.778 145.991 192.778C145.883 192.778 145.775 192.753 145.678 192.705L141.362 190.221C141.181 190.112 141.166 189.955 141.322 189.862L145.459 187.48C145.563 187.419 145.682 187.386 145.803 187.386C145.924 187.386 146.043 187.419 146.148 187.48H146.172ZM152.455 191.081L156.771 193.565C156.959 193.674 156.974 193.831 156.771 193.924L152.644 196.308C152.547 196.358 152.439 196.384 152.33 196.384C152.221 196.384 152.113 196.358 152.017 196.308L147.7 193.824C147.512 193.714 147.497 193.558 147.661 193.465L151.829 191.082C151.926 191.032 152.034 191.006 152.143 191.006C152.252 191.006 152.36 191.032 152.456 191.082L152.455 191.081ZM187.368 229.87C187.272 229.92 187.164 229.946 187.055 229.946C186.946 229.946 186.838 229.92 186.742 229.87L182.425 227.386C182.245 227.284 182.229 227.12 182.386 227.027L186.522 224.683C186.619 224.633 186.726 224.607 186.836 224.607C186.945 224.607 187.052 224.633 187.149 224.683L191.465 227.167C191.646 227.276 191.661 227.441 191.505 227.535L187.368 229.87ZM202.92 220.174L207.237 222.658C207.417 222.767 207.44 222.931 207.276 223.025L203.14 225.369C203.043 225.419 202.935 225.445 202.826 225.445C202.717 225.445 202.61 225.419 202.513 225.369L198.196 222.885C198.016 222.783 198.001 222.619 198.196 222.526L202.325 220.182C202.417 220.136 202.518 220.112 202.622 220.11C202.725 220.109 202.827 220.131 202.92 220.175V220.174ZM194.924 227.463C194.825 227.51 194.716 227.535 194.606 227.535C194.496 227.535 194.388 227.51 194.289 227.463L189.972 224.979C189.792 224.869 189.777 224.705 189.972 224.611L194.101 222.268C194.198 222.218 194.305 222.192 194.414 222.192C194.524 222.192 194.631 222.218 194.728 222.268L199.005 224.723C199.186 224.825 199.209 224.989 199.044 225.082L194.924 227.463ZM177.51 231.369L173.193 228.885C173.013 228.783 172.998 228.619 173.193 228.526L177.329 226.183C177.427 226.134 177.534 226.109 177.643 226.109C177.752 226.109 177.859 226.134 177.956 226.183L182.273 228.675C182.453 228.777 182.468 228.941 182.273 229.034L178.14 231.38C178.043 231.426 177.936 231.449 177.829 231.446C177.721 231.444 177.616 231.416 177.522 231.365L177.51 231.369ZM184.45 235.025C184.353 235.075 184.245 235.101 184.136 235.101C184.027 235.101 183.92 235.075 183.823 235.025L179.506 232.541C179.318 232.439 179.303 232.275 179.506 232.182L183.635 229.838C183.732 229.79 183.839 229.765 183.948 229.765C184.057 229.765 184.164 229.79 184.262 229.838L188.578 232.331C188.766 232.432 188.781 232.597 188.617 232.69L184.45 235.025ZM196.654 216.541L200.978 219.025C201.158 219.134 201.174 219.299 200.978 219.393L196.85 221.736C196.753 221.786 196.645 221.812 196.536 221.812C196.427 221.812 196.319 221.786 196.223 221.736L191.906 219.252C191.718 219.15 191.703 218.986 191.867 218.893L195.995 216.511C196.099 216.462 196.214 216.44 196.328 216.445C196.443 216.451 196.554 216.484 196.653 216.542L196.654 216.541ZM165.109 198.378L169.425 200.862C169.613 200.971 169.629 201.127 169.465 201.221L165.336 203.564C165.239 203.614 165.132 203.64 165.023 203.64C164.913 203.64 164.806 203.614 164.709 203.564L160.385 201.08C160.205 200.971 160.189 200.814 160.385 200.721L164.513 198.339C164.605 198.304 164.702 198.29 164.8 198.297C164.897 198.304 164.992 198.331 165.077 198.378H165.109ZM190.348 212.908L194.665 215.392C194.845 215.501 194.868 215.666 194.704 215.76L190.576 218.103C190.477 218.153 190.369 218.179 190.258 218.179C190.148 218.179 190.039 218.153 189.941 218.103L185.625 215.619C185.444 215.51 185.429 215.353 185.625 215.26L189.753 212.917C189.841 212.877 189.937 212.855 190.034 212.854C190.131 212.853 190.228 212.872 190.317 212.909L190.348 212.908ZM158.804 194.745L163.12 197.229C163.3 197.338 163.316 197.494 163.12 197.588L158.992 199.97C158.895 200.02 158.787 200.046 158.678 200.046C158.569 200.046 158.461 200.02 158.365 199.97L154.048 197.486C153.868 197.377 153.852 197.22 154.009 197.127L158.145 194.784C158.239 194.727 158.345 194.695 158.454 194.688C158.563 194.681 158.672 194.701 158.772 194.745H158.804ZM171.394 202.018L175.71 204.502C175.891 204.611 175.906 204.768 175.71 204.861L171.582 207.243C171.485 207.293 171.378 207.32 171.268 207.32C171.159 207.32 171.052 207.293 170.955 207.243L166.638 204.759C166.458 204.65 166.435 204.494 166.599 204.4L170.759 202.018C170.857 201.969 170.964 201.943 171.074 201.943C171.183 201.943 171.291 201.969 171.388 202.018H171.394ZM177.7 205.651L182.017 208.135C182.205 208.244 182.22 208.401 182.056 208.494L177.927 210.876C177.831 210.926 177.723 210.952 177.614 210.952C177.505 210.952 177.397 210.926 177.3 210.876L172.976 208.392C172.796 208.283 172.781 208.126 172.976 208.033L177.073 205.62C177.172 205.575 177.281 205.554 177.39 205.558C177.498 205.562 177.605 205.591 177.7 205.643V205.651ZM183.967 209.284L188.291 211.768C188.472 211.877 188.487 212.041 188.291 212.135L184.163 214.479C184.066 214.529 183.959 214.555 183.85 214.555C183.74 214.555 183.633 214.529 183.536 214.479L179.22 211.995C179.032 211.886 179.016 211.729 179.18 211.636L183.34 209.253C183.445 209.202 183.56 209.178 183.676 209.182C183.793 209.186 183.906 209.219 184.007 209.277L183.967 209.284ZM155.163 211.721L150.847 209.237C150.659 209.128 150.644 208.971 150.847 208.878L154.975 206.535C155.073 206.487 155.18 206.461 155.289 206.461C155.398 206.461 155.505 206.487 155.602 206.535L159.926 209.019C160.107 209.128 160.122 209.285 159.926 209.378L155.798 211.76C155.702 211.798 155.598 211.813 155.495 211.805C155.392 211.797 155.292 211.766 155.202 211.714L155.163 211.721ZM96.3031 158.807L100.62 161.291C100.8 161.392 100.815 161.557 100.659 161.65L96.5226 163.993C96.4252 164.042 96.3179 164.067 96.2091 164.067C96.1003 164.067 95.993 164.042 95.8956 163.993L91.5791 161.501C91.3988 161.399 91.3835 161.235 91.54 161.142L95.6761 158.798C95.7778 158.742 95.8925 158.712 96.0092 158.712C96.1258 158.712 96.2405 158.742 96.3422 158.798L96.3031 158.807ZM103.941 163.198L108.257 165.69C108.438 165.792 108.453 165.956 108.296 166.049L104.153 168.391C104.056 168.439 103.949 168.464 103.84 168.464C103.731 168.464 103.624 168.439 103.526 168.391L99.2099 165.898C99.0296 165.797 99.0143 165.632 99.1708 165.539L103.307 163.196C103.409 163.14 103.523 163.11 103.639 163.109C103.755 163.107 103.87 163.135 103.973 163.188L103.941 163.198ZM90.0283 155.143L94.3448 157.627C94.5328 157.728 94.5481 157.893 94.3839 157.986L90.2554 160.329C90.158 160.377 90.0507 160.402 89.9419 160.402C89.8332 160.402 89.7259 160.377 89.6285 160.329L85.312 157.837C85.124 157.735 85.1087 157.571 85.2729 157.478L89.4013 155.134C89.4981 155.087 89.6048 155.063 89.7126 155.065C89.8205 155.067 89.9263 155.094 90.0215 155.144L90.0283 155.143ZM124.903 187.47L120.586 184.986C120.406 184.885 120.391 184.721 120.547 184.627L124.683 182.284C124.781 182.236 124.888 182.211 124.997 182.211C125.106 182.211 125.213 182.236 125.31 182.284L129.627 184.776C129.807 184.878 129.823 185.042 129.666 185.135L125.53 187.479C125.432 187.528 125.325 187.553 125.215 187.551C125.106 187.55 124.999 187.522 124.903 187.471V187.47ZM83.0959 151.533C83.1933 151.485 83.3006 151.46 83.4094 151.46C83.5182 151.46 83.6255 151.485 83.7229 151.533L88.0393 154.026C88.2197 154.128 88.235 154.292 88.0785 154.385L83.9424 156.728C83.845 156.777 83.7377 156.802 83.6289 156.802C83.5201 156.802 83.4128 156.777 83.3154 156.728L78.9989 154.236C78.8186 154.134 78.8032 153.97 78.9598 153.877L83.0959 151.533ZM148.897 208.103L144.581 205.619C144.4 205.51 144.385 205.353 144.581 205.26L148.709 202.877C148.806 202.827 148.913 202.801 149.023 202.801C149.132 202.801 149.239 202.827 149.336 202.877L153.574 205.361C153.755 205.471 153.778 205.627 153.574 205.72L149.446 208.103C149.354 208.139 149.256 208.156 149.157 208.152C149.059 208.148 148.962 208.123 148.874 208.079L148.897 208.103ZM71.5263 163.57L67.2098 161.086C67.0218 160.984 67.0065 160.82 67.1707 160.727L71.3221 158.266C71.4195 158.218 71.5268 158.193 71.6356 158.193C71.7444 158.193 71.8517 158.218 71.9491 158.266L76.2656 160.75C76.4536 160.859 76.4689 161.023 76.3047 161.117L72.1763 163.461C72.081 163.526 71.9707 163.566 71.8556 163.577C71.7406 163.588 71.6246 163.569 71.5187 163.523L71.5263 163.57ZM83.739 163.805L79.4149 161.321C79.2346 161.219 79.2192 161.055 79.4149 160.962L83.5434 158.618C83.6408 158.57 83.7481 158.545 83.8569 158.545C83.9656 158.545 84.0729 158.57 84.1703 158.618L88.4783 161.11C88.6663 161.211 88.6816 161.376 88.5174 161.469L84.389 163.812C84.2806 163.858 84.1623 163.874 84.0456 163.861C83.9289 163.847 83.8177 163.803 83.7229 163.734L83.739 163.805ZM77.2056 154.953C77.303 154.905 77.4103 154.88 77.5191 154.88C77.6279 154.88 77.7352 154.905 77.8326 154.953L82.1491 157.445C82.3294 157.547 82.3447 157.711 82.1491 157.804L78.0206 160.148C77.9238 160.198 77.8162 160.224 77.7071 160.224C77.598 160.224 77.4905 160.198 77.3936 160.148L73.0772 157.664C72.8968 157.562 72.8738 157.398 73.0772 157.305L77.2056 154.953ZM75.8743 154.172L65.8479 159.945C65.7497 159.995 65.6409 160.021 65.5306 160.021C65.4202 160.021 65.3114 159.995 65.2132 159.945L60.8968 157.461C60.7164 157.359 60.7011 157.195 60.8968 157.102L70.9232 151.329C71.0206 151.28 71.1279 151.255 71.2367 151.255C71.3454 151.255 71.4528 151.28 71.5501 151.329L75.8666 153.813C76.0231 153.883 76.0231 154.047 75.8666 154.141L75.8743 154.172ZM90.4443 162.171L94.7608 164.664C94.9411 164.765 94.9564 164.93 94.7608 165.023L90.6323 167.366C90.5354 167.416 90.4279 167.442 90.3188 167.442C90.2097 167.442 90.1022 167.416 90.0053 167.366L85.6889 164.882C85.5085 164.781 85.4855 164.616 85.6497 164.523L89.7782 162.18C89.8804 162.125 89.9943 162.096 90.1103 162.095C90.2263 162.093 90.3409 162.12 90.4443 162.172V162.171ZM137.907 189.518L142.223 192.01C142.404 192.112 142.419 192.276 142.223 192.369L138.087 194.712C137.99 194.762 137.883 194.789 137.774 194.789C137.665 194.789 137.557 194.762 137.46 194.712L133.207 192.251C133.026 192.15 133.011 191.985 133.168 191.892L137.304 189.549C137.395 189.501 137.495 189.473 137.598 189.468C137.701 189.462 137.804 189.48 137.9 189.518L137.907 189.518ZM78.4272 167.166C78.3304 167.217 78.2229 167.243 78.1138 167.243C78.0046 167.243 77.8971 167.217 77.8003 167.166L73.4838 164.682C73.3034 164.581 73.2881 164.417 73.4838 164.324L77.5884 161.933C77.6858 161.884 77.7931 161.859 77.9019 161.859C78.0107 161.859 78.118 161.884 78.2154 161.933L82.5319 164.417C82.7122 164.526 82.7276 164.69 82.571 164.784L78.4272 167.166ZM131.596 185.916L135.913 188.408C136.101 188.51 136.116 188.674 135.913 188.767L131.784 191.111C131.687 191.161 131.58 191.187 131.471 191.187C131.362 191.187 131.254 191.161 131.157 191.111L126.841 188.627C126.653 188.525 126.638 188.361 126.802 188.268L130.93 185.924C131.036 185.858 131.158 185.82 131.283 185.816C131.409 185.812 131.533 185.841 131.643 185.901L131.596 185.916ZM181.072 226.235C180.976 226.285 180.868 226.311 180.759 226.311C180.65 226.311 180.542 226.285 180.445 226.235L176.123 223.752C175.935 223.65 175.92 223.486 176.123 223.393L180.206 221.018C180.304 220.97 180.411 220.945 180.52 220.945C180.629 220.945 180.736 220.97 180.833 221.018L185.15 223.502C185.338 223.611 185.353 223.776 185.189 223.87L181.072 226.235ZM188.405 218.571L192.743 221.087C192.924 221.188 192.939 221.353 192.743 221.446L188.615 223.789C188.518 223.839 188.41 223.865 188.301 223.865C188.192 223.865 188.085 223.839 187.988 223.789L183.671 221.305C183.483 221.196 183.468 221.032 183.632 220.938L187.761 218.594C187.86 218.543 187.971 218.517 188.083 218.518C188.195 218.519 188.305 218.548 188.403 218.602L188.405 218.571ZM174.132 222.579L169.816 220.095C169.636 219.994 169.62 219.829 169.816 219.736L173.944 217.385C174.042 217.337 174.149 217.312 174.258 217.312C174.367 217.312 174.474 217.337 174.571 217.385L178.888 219.869C179.068 219.978 179.083 220.143 178.888 220.237L174.752 222.58C174.658 222.634 174.554 222.664 174.446 222.67C174.339 222.675 174.231 222.655 174.133 222.611L174.132 222.579ZM167.826 218.946L163.51 216.462C163.322 216.353 163.306 216.197 163.47 216.103L167.599 213.733C167.696 213.685 167.804 213.66 167.912 213.66C168.021 213.66 168.129 213.685 168.226 213.733L172.542 216.217C172.73 216.326 172.746 216.49 172.542 216.584L168.414 218.928C168.326 218.979 168.227 219.01 168.125 219.018C168.024 219.026 167.921 219.011 167.826 218.974V218.946ZM161.512 215.314L157.196 212.829C157.015 212.72 157 212.564 157.196 212.471L161.324 210.088C161.422 210.04 161.529 210.015 161.638 210.015C161.746 210.015 161.854 210.04 161.951 210.088L166.255 212.573C166.435 212.682 166.458 212.846 166.294 212.932L162.158 215.275C162.063 215.342 161.953 215.383 161.838 215.396C161.723 215.408 161.606 215.391 161.499 215.346L161.512 215.314ZM182.099 214.938L186.416 217.422C186.596 217.524 186.619 217.688 186.455 217.781L182.326 220.125C182.228 220.173 182.119 220.198 182.009 220.198C181.899 220.198 181.79 220.173 181.692 220.125L177.375 217.641C177.195 217.532 177.18 217.367 177.375 217.273L181.504 214.93C181.599 214.891 181.703 214.874 181.806 214.881C181.909 214.888 182.009 214.918 182.099 214.969V214.938ZM175.785 211.306L180.109 213.79C180.29 213.891 180.305 214.055 180.109 214.149L175.981 216.492C175.884 216.54 175.776 216.565 175.667 216.565C175.559 216.565 175.451 216.54 175.354 216.492L171.038 214C170.857 213.898 170.834 213.734 170.998 213.641L175.127 211.297C175.231 211.248 175.346 211.225 175.461 211.232C175.576 211.239 175.687 211.275 175.784 211.336L175.785 211.306ZM150.553 196.775L154.87 199.259C155.05 199.36 155.066 199.525 154.87 199.618L150.741 201.961C150.644 202.01 150.537 202.035 150.428 202.035C150.319 202.035 150.212 202.01 150.114 201.961L145.798 199.469C145.618 199.367 145.602 199.203 145.759 199.11L149.895 196.766C149.999 196.717 150.114 196.695 150.229 196.701C150.344 196.708 150.455 196.744 150.553 196.805L150.553 196.775ZM156.86 200.454L161.176 202.938C161.364 203.04 161.379 203.204 161.215 203.297L157.076 205.642C156.978 205.691 156.871 205.716 156.762 205.716C156.653 205.716 156.546 205.691 156.449 205.642L152.132 203.15C151.944 203.048 151.929 202.884 152.132 202.791L156.261 200.448C156.353 200.405 156.454 200.384 156.556 200.385C156.657 200.387 156.757 200.411 156.849 200.456L156.86 200.454ZM144.24 193.181L148.557 195.673C148.745 195.775 148.76 195.939 148.557 196.032L144.428 198.376C144.331 198.424 144.224 198.449 144.115 198.449C144.006 198.449 143.899 198.424 143.801 198.376L139.485 195.883C139.297 195.782 139.282 195.618 139.446 195.524L143.574 193.181C143.675 193.124 143.789 193.093 143.905 193.09C144.022 193.087 144.137 193.113 144.24 193.166V193.181ZM169.48 207.704L173.796 210.188C173.984 210.29 174 210.454 173.835 210.547L169.707 212.89C169.61 212.939 169.502 212.964 169.394 212.964C169.285 212.964 169.177 212.939 169.08 212.89L164.756 210.398C164.576 210.296 164.56 210.132 164.756 210.039L168.884 207.696C168.976 207.654 169.077 207.633 169.178 207.635C169.279 207.637 169.378 207.661 169.469 207.706L169.48 207.704ZM163.174 204.071L167.49 206.555C167.67 206.657 167.686 206.821 167.49 206.914L163.362 209.258C163.264 209.306 163.157 209.331 163.048 209.331C162.939 209.331 162.832 209.306 162.735 209.258L158.418 206.765C158.238 206.663 158.215 206.499 158.379 206.406L162.515 204.063C162.616 204.009 162.73 203.981 162.845 203.982C162.96 203.984 163.073 204.014 163.173 204.07L163.174 204.071ZM171.226 227.727L166.91 225.243C166.722 225.141 166.707 224.977 166.871 224.884L170.999 222.54C171.097 222.492 171.204 222.467 171.313 222.467C171.421 222.467 171.529 222.492 171.626 222.54L175.943 225.024C176.131 225.134 176.146 225.298 175.943 225.392L171.814 227.735C171.722 227.778 171.621 227.799 171.519 227.798C171.418 227.797 171.318 227.773 171.226 227.728V227.727ZM204.495 226.164L208.623 223.82C208.72 223.77 208.828 223.744 208.937 223.744C209.046 223.744 209.153 223.77 209.25 223.82L213.567 226.304C213.755 226.414 213.77 226.578 213.567 226.672L209.438 229.015C209.341 229.065 209.234 229.092 209.125 229.092C209.016 229.092 208.908 229.065 208.811 229.015L204.495 226.531C204.336 226.424 204.32 226.236 204.485 226.166L204.495 226.164ZM196.269 228.219L200.398 225.875C200.495 225.825 200.602 225.799 200.711 225.799C200.82 225.799 200.928 225.825 201.025 225.875L207.629 229.685C207.817 229.794 207.832 229.959 207.629 230.053L203.5 232.396C203.404 232.446 203.296 232.472 203.187 232.472C203.078 232.472 202.97 232.446 202.873 232.396L196.23 228.576C196.202 228.555 196.179 228.526 196.164 228.494C196.149 228.461 196.143 228.426 196.146 228.39C196.149 228.355 196.161 228.321 196.181 228.291C196.2 228.261 196.227 228.237 196.259 228.22L196.269 228.219ZM210.659 221.469L214.788 219.125C214.884 219.075 214.992 219.049 215.101 219.049C215.21 219.049 215.318 219.075 215.415 219.125L220.733 222.187C220.913 222.289 220.929 222.453 220.733 222.546L216.605 224.89C216.507 224.938 216.4 224.963 216.291 224.963C216.182 224.963 216.075 224.938 215.978 224.89L210.667 221.827C210.5 221.721 210.485 221.549 210.649 221.474L210.659 221.469ZM206.586 219.125C206.489 219.175 206.382 219.201 206.272 219.201C206.163 219.201 206.056 219.175 205.959 219.125L201.642 216.641C201.454 216.532 201.439 216.368 201.603 216.274L205.732 213.93C205.829 213.88 205.936 213.854 206.045 213.854C206.154 213.854 206.262 213.88 206.359 213.93L210.675 216.414C210.863 216.516 210.879 216.68 210.714 216.773L206.586 219.125ZM188.71 230.671L192.839 228.328C192.936 228.28 193.043 228.255 193.152 228.255C193.261 228.255 193.368 228.28 193.465 228.328L201.769 233.109C201.95 233.218 201.973 233.375 201.769 233.468L197.641 235.811C197.543 235.861 197.434 235.887 197.323 235.887C197.213 235.887 197.104 235.861 197.006 235.811L188.711 231.03C188.562 230.921 188.547 230.757 188.711 230.663L188.71 230.671ZM185.796 235.788L189.933 233.445C190.03 233.397 190.137 233.372 190.246 233.372C190.355 233.372 190.462 233.397 190.559 233.445L195.878 236.484C196.058 236.593 196.074 236.749 195.878 236.842L191.742 239.225C191.644 239.273 191.537 239.297 191.428 239.297C191.32 239.297 191.213 239.273 191.115 239.225L185.804 236.163C185.655 236.037 185.634 235.874 185.796 235.78V235.788ZM159.672 192.118C159.575 192.168 159.468 192.194 159.359 192.194C159.249 192.194 159.142 192.168 159.045 192.118L154.729 189.634C154.548 189.524 154.533 189.368 154.69 189.275L158.826 186.931C158.923 186.883 159.03 186.859 159.139 186.859C159.248 186.859 159.355 186.883 159.453 186.931L163.761 189.369C163.942 189.478 163.957 189.634 163.801 189.728L159.672 192.118ZM172.291 199.383C172.195 199.433 172.087 199.459 171.978 199.459C171.869 199.459 171.761 199.433 171.664 199.383L167.348 196.899C167.168 196.798 167.145 196.633 167.309 196.54L171.445 194.158C171.543 194.11 171.65 194.085 171.758 194.085C171.867 194.085 171.974 194.11 172.072 194.158L176.388 196.642C176.569 196.751 176.584 196.915 176.388 197.009L172.291 199.383ZM200.28 215.492C200.181 215.541 200.072 215.566 199.962 215.566C199.852 215.566 199.744 215.541 199.645 215.492L195.329 212.952C195.148 212.843 195.133 212.679 195.329 212.585L199.457 210.241C199.554 210.191 199.661 210.165 199.77 210.165C199.88 210.165 199.987 210.191 200.084 210.241L204.4 212.725C204.581 212.827 204.604 212.991 204.4 213.084L200.28 215.492ZM165.984 195.766C165.887 195.816 165.78 195.842 165.671 195.842C165.562 195.842 165.454 195.816 165.357 195.766L161.032 193.282C160.844 193.18 160.829 193.016 160.993 192.923L165.122 190.54C165.219 190.492 165.326 190.467 165.435 190.467C165.544 190.467 165.651 190.492 165.749 190.54L170.065 193.024C170.253 193.134 170.268 193.298 170.104 193.392L165.984 195.766ZM178.604 203.031C178.507 203.081 178.399 203.108 178.29 203.108C178.181 203.108 178.074 203.081 177.977 203.031L173.66 200.547C173.472 200.446 173.457 200.282 173.66 200.188L177.789 197.806C177.886 197.758 177.993 197.733 178.102 197.733C178.211 197.733 178.318 197.758 178.416 197.806L182.732 200.29C182.92 200.399 182.935 200.564 182.771 200.658L178.604 203.031ZM182.701 236.062C182.798 236.014 182.905 235.989 183.014 235.989C183.123 235.989 183.23 236.014 183.328 236.062L189.971 239.889C190.151 239.991 190.166 240.155 189.971 240.248L185.842 242.592C185.745 242.642 185.638 242.668 185.529 242.668C185.42 242.668 185.312 242.642 185.215 242.592L178.572 238.763C178.392 238.662 178.377 238.498 178.572 238.405L182.701 236.062ZM187.659 208.242C187.562 208.291 187.455 208.316 187.346 208.316C187.237 208.316 187.13 208.291 187.032 208.242L182.708 205.75C182.528 205.648 182.513 205.484 182.708 205.391L186.837 203.048C186.934 202.998 187.041 202.971 187.15 202.971C187.259 202.971 187.367 202.998 187.464 203.048L191.78 205.532C191.968 205.633 191.984 205.797 191.819 205.891L187.659 208.242ZM193.966 211.875C193.868 211.924 193.761 211.949 193.652 211.949C193.543 211.949 193.436 211.924 193.339 211.875L189.022 209.383C188.834 209.281 188.819 209.117 188.983 209.024L193.112 206.68C193.208 206.63 193.316 206.604 193.425 206.604C193.534 206.604 193.642 206.63 193.739 206.68L198.063 209.164C198.243 209.266 198.258 209.43 198.063 209.523L193.966 211.875ZM65.7926 168.753C65.8894 168.703 65.9969 168.677 66.1061 168.677C66.2152 168.677 66.3227 168.703 66.4195 168.753L77.0533 174.87C77.2337 174.979 77.2567 175.136 77.0925 175.229L72.9564 177.611C72.8595 177.661 72.752 177.688 72.6429 177.688C72.5338 177.688 72.4262 177.661 72.3294 177.611L61.7032 171.495C61.5152 171.386 61.4999 171.229 61.6641 171.136L65.7926 168.753ZM79.7441 176.784C79.841 176.734 79.9485 176.708 80.0576 176.708C80.1667 176.708 80.2743 176.734 80.3711 176.784L84.6876 179.268C84.8679 179.377 84.8909 179.534 84.7267 179.627L80.5982 182.01C80.5 182.06 80.3913 182.086 80.2809 182.086C80.1706 182.086 80.0618 182.06 79.9636 182.01L75.6471 179.526C75.4668 179.416 75.4515 179.26 75.6471 179.167L79.7441 176.784ZM164.9 224.096L160.583 221.612C160.403 221.51 160.388 221.346 160.544 221.253L164.68 218.909C164.778 218.861 164.885 218.836 164.994 218.836C165.102 218.836 165.21 218.861 165.307 218.909L169.624 221.393C169.804 221.502 169.819 221.667 169.624 221.761L165.495 224.104C165.402 224.148 165.301 224.17 165.198 224.169C165.095 224.169 164.994 224.144 164.901 224.099L164.9 224.096ZM92.3618 184.05C92.4592 184.002 92.5665 183.977 92.6753 183.977C92.7841 183.977 92.8914 184.002 92.9888 184.05L97.3052 186.534C97.4856 186.643 97.5085 186.8 97.3444 186.893L93.2082 189.275C93.1114 189.325 93.0039 189.352 92.8947 189.352C92.7856 189.352 92.6781 189.325 92.5813 189.275L88.2648 186.791C88.0844 186.682 88.0691 186.526 88.2648 186.432L92.3618 184.05ZM59.4616 165.121C59.5585 165.071 59.666 165.045 59.7751 165.045C59.8842 165.045 59.9917 165.071 60.0886 165.121L64.4272 167.645C64.6075 167.754 64.6305 167.911 64.4663 168.004L60.3378 170.347C60.2405 170.396 60.1332 170.421 60.0244 170.421C59.9156 170.421 59.8083 170.396 59.7109 170.347L55.3868 167.863C55.2064 167.754 55.1911 167.597 55.3868 167.504L59.4616 165.121ZM49.0192 163.871L59.0575 158.091C59.1544 158.041 59.2619 158.015 59.371 158.015C59.4801 158.015 59.5877 158.041 59.6845 158.091L64.0231 160.614C64.2035 160.723 64.2188 160.879 64.0622 160.973L54.0239 166.753C53.9265 166.802 53.8192 166.827 53.7104 166.827C53.6016 166.827 53.4943 166.802 53.397 166.753L49.0805 164.269C48.9001 164.1 48.8772 163.941 49.0413 163.846L49.0192 163.871ZM115.964 197.605C116.061 197.555 116.168 197.529 116.277 197.529C116.386 197.529 116.494 197.555 116.591 197.605L121.902 200.66C122.082 200.769 122.105 200.933 121.941 201.027L117.812 203.371C117.714 203.421 117.605 203.447 117.495 203.447C117.385 203.447 117.276 203.421 117.178 203.371L111.867 200.316C111.686 200.207 111.671 200.043 111.828 199.949L115.964 197.605ZM100.022 188.426C100.119 188.376 100.227 188.35 100.336 188.35C100.445 188.35 100.552 188.376 100.649 188.426L107.292 192.246C107.473 192.355 107.488 192.52 107.332 192.614L103.195 194.957C103.099 195.007 102.991 195.033 102.882 195.033C102.773 195.033 102.665 195.007 102.569 194.957L95.9254 191.137C95.745 191.028 95.7297 190.871 95.9254 190.778L100.022 188.426ZM130.573 206.019C130.67 205.969 130.777 205.943 130.886 205.943C130.995 205.943 131.103 205.969 131.2 206.019L166.732 226.48C166.912 226.581 166.935 226.746 166.771 226.839L162.643 229.182C162.546 229.232 162.438 229.258 162.329 229.258C162.22 229.258 162.113 229.232 162.016 229.182L126.475 208.729C126.295 208.62 126.279 208.456 126.475 208.362L130.573 206.019ZM168.095 227.628C168.192 227.58 168.3 227.554 168.408 227.554C168.517 227.554 168.624 227.58 168.722 227.628L174.04 230.69C174.221 230.799 174.236 230.956 174.04 231.049L169.912 233.431C169.815 233.48 169.707 233.505 169.599 233.505C169.49 233.505 169.382 233.48 169.285 233.431L163.974 230.369C163.794 230.268 163.771 230.103 163.935 230.01L168.095 227.628ZM123.263 201.847C123.36 201.797 123.467 201.771 123.576 201.771C123.685 201.771 123.793 201.797 123.89 201.847L129.208 204.909C129.389 205.011 129.404 205.175 129.208 205.268L125.08 207.612C124.983 207.662 124.876 207.688 124.766 207.688C124.657 207.688 124.55 207.662 124.453 207.612L119.142 204.549C118.954 204.448 118.939 204.284 119.103 204.19L123.263 201.847ZM175.402 231.862C175.499 231.812 175.607 231.786 175.716 231.786C175.825 231.786 175.933 231.812 176.029 231.862L181.34 234.916C181.528 235.026 181.544 235.19 181.34 235.284L177.212 237.627C177.115 237.677 177.008 237.703 176.898 237.703C176.789 237.703 176.682 237.677 176.585 237.627L171.274 234.572C171.086 234.463 171.071 234.306 171.274 234.213L175.402 231.862ZM108.63 193.425C108.727 193.377 108.835 193.351 108.943 193.351C109.052 193.351 109.159 193.377 109.257 193.425L114.568 196.487C114.756 196.589 114.771 196.753 114.568 196.846L110.439 199.228C110.342 199.277 110.235 199.302 110.126 199.302C110.017 199.302 109.91 199.277 109.812 199.228L104.501 196.166C104.313 196.065 104.298 195.9 104.462 195.807L108.63 193.425ZM86.0504 180.413C86.1473 180.363 86.2548 180.337 86.3639 180.337C86.473 180.337 86.5805 180.363 86.6774 180.413L91.0015 182.897C91.1818 183.006 91.1972 183.163 91.0015 183.256L86.9045 185.607C86.8077 185.657 86.7001 185.683 86.591 185.683C86.4819 185.683 86.3744 185.657 86.2775 185.607L81.9611 183.123C81.7731 183.014 81.7577 182.857 81.9611 182.764L86.0504 180.413ZM71.95 170.578L67.6335 168.094C67.4531 167.984 67.4302 167.828 67.5944 167.735L71.7305 165.391C71.828 165.343 71.9353 165.319 72.044 165.319C72.1527 165.319 72.2599 165.343 72.3575 165.391L76.6739 167.875C76.8543 167.984 76.8696 168.141 76.6739 168.243L72.5455 170.586C72.4461 170.631 72.3373 170.652 72.2281 170.647C72.119 170.641 72.0128 170.61 71.9185 170.555L71.95 170.578ZM97.6982 171.812L93.3818 169.328C93.2014 169.226 93.1785 169.062 93.3426 168.969L97.4711 166.626C97.5698 166.577 97.6784 166.552 97.7884 166.552C97.8985 166.552 98.007 166.577 98.1057 166.626L102.422 169.118C102.603 169.22 102.618 169.384 102.422 169.477L98.2937 171.82C98.1944 171.866 98.0855 171.886 97.9764 171.881C97.8673 171.876 97.7611 171.844 97.6668 171.789L97.6982 171.812ZM114.399 195.03L101.788 187.764C101.6 187.655 101.584 187.498 101.748 187.405L105.877 185.023C105.974 184.975 106.082 184.949 106.19 184.949C106.299 184.949 106.407 184.975 106.504 185.023L119.123 192.289C119.304 192.398 119.327 192.554 119.162 192.648L115.034 194.991C114.939 195.048 114.832 195.081 114.722 195.089C114.611 195.097 114.501 195.078 114.399 195.034V195.03ZM78.8356 174.21C78.7387 174.26 78.6312 174.287 78.5221 174.287C78.413 174.287 78.3055 174.26 78.2086 174.21L73.8921 171.726C73.7041 171.617 73.6888 171.461 73.853 171.367L77.9815 168.985C78.0789 168.937 78.1862 168.912 78.295 168.912C78.4037 168.912 78.511 168.937 78.6084 168.985L82.9249 171.469C83.1129 171.578 83.1282 171.743 82.9249 171.837L78.8356 174.21ZM84.1312 170.766L79.8147 168.282C79.6267 168.18 79.6114 168.016 79.7756 167.923L83.9041 165.579C84.0015 165.531 84.1088 165.506 84.2176 165.506C84.3264 165.506 84.4337 165.531 84.531 165.579L88.8475 168.063C89.0355 168.172 89.0508 168.337 88.8867 168.431L84.7582 170.774C84.6607 170.823 84.5529 170.848 84.4438 170.846C84.3346 170.845 84.2275 170.818 84.1312 170.766V170.766ZM120.737 198.64L116.421 196.16C116.233 196.051 116.217 195.894 116.381 195.801L120.51 193.426C120.607 193.376 120.714 193.35 120.823 193.35C120.933 193.35 121.04 193.376 121.137 193.426L125.461 195.91C125.641 196.02 125.657 196.176 125.461 196.269L121.333 198.652C121.241 198.699 121.14 198.725 121.037 198.728C120.933 198.73 120.831 198.71 120.737 198.667V198.64ZM92.8033 182.234C92.7064 182.284 92.5989 182.31 92.4898 182.31C92.3807 182.31 92.2732 182.284 92.1763 182.234L87.8598 179.75C87.6795 179.641 87.6642 179.484 87.8207 179.391L91.9568 177.048C92.0544 177 92.1616 176.975 92.2703 176.975C92.379 176.975 92.4862 177 92.5838 177.048L96.9003 179.532C97.0806 179.641 97.0959 179.797 96.9003 179.899L92.8033 182.234ZM152.283 216.861L147.966 214.377C147.786 214.276 147.771 214.111 147.966 214.018L152.103 211.636C152.2 211.588 152.307 211.563 152.416 211.563C152.525 211.563 152.632 211.588 152.729 211.636L157.046 214.12C157.226 214.229 157.242 214.393 157.085 214.487L152.949 216.831C152.85 216.892 152.737 216.928 152.62 216.933C152.503 216.939 152.387 216.913 152.283 216.861ZM145.977 213.228L141.66 210.744C141.472 210.643 141.457 210.478 141.621 210.385L145.733 207.972C145.831 207.923 145.938 207.898 146.047 207.898C146.156 207.898 146.263 207.923 146.36 207.972L150.677 210.456C150.865 210.565 150.88 210.729 150.677 210.823L146.548 213.166C146.461 213.213 146.365 213.239 146.266 213.245C146.167 213.25 146.068 213.234 145.977 213.198V213.228ZM158.598 220.494L154.282 218.01C154.094 217.908 154.079 217.744 154.282 217.651L158.41 215.308C158.508 215.259 158.615 215.234 158.724 215.234C158.833 215.234 158.94 215.259 159.037 215.308L163.354 217.792C163.542 217.901 163.557 218.065 163.393 218.159L159.265 220.503C159.16 220.553 159.043 220.577 158.926 220.57C158.81 220.563 158.697 220.526 158.598 220.464V220.494ZM133.359 205.924L129.04 203.441C128.852 203.332 128.837 203.175 129.001 203.082L133.129 200.7C133.227 200.652 133.334 200.626 133.443 200.626C133.552 200.626 133.659 200.652 133.756 200.7L138.073 203.184C138.261 203.293 138.276 203.45 138.073 203.543L133.983 205.925C133.887 205.975 133.779 206.001 133.67 206.001C133.561 206.001 133.453 205.975 133.356 205.925L133.359 205.924ZM139.665 209.557L135.349 207.073C135.168 206.972 135.153 206.807 135.31 206.714L139.47 204.363C139.567 204.315 139.674 204.29 139.783 204.29C139.892 204.29 139.999 204.315 140.097 204.363L144.413 206.847C144.593 206.956 144.609 207.121 144.452 207.215L140.316 209.558C140.217 209.613 140.106 209.643 139.992 209.644C139.878 209.645 139.766 209.619 139.666 209.566L139.665 209.557ZM127.046 202.292L122.729 199.807C122.549 199.698 122.534 199.542 122.729 199.449L126.858 197.066C126.955 197.016 127.062 196.99 127.171 196.99C127.28 196.99 127.388 197.016 127.485 197.066L131.801 199.547C131.982 199.656 132.005 199.813 131.84 199.906L127.704 202.288C127.604 202.345 127.491 202.375 127.376 202.376C127.262 202.378 127.148 202.35 127.047 202.296L127.046 202.292ZM92.6178 151.754C92.521 151.804 92.4135 151.83 92.3044 151.83C92.1952 151.83 92.0877 151.804 91.9909 151.754L87.6744 149.27C87.4864 149.16 87.4711 149.004 87.6353 148.911L88.7318 148.278C88.8292 148.23 88.9365 148.205 89.0453 148.205C89.1541 148.205 89.2614 148.23 89.3588 148.278L93.6829 150.771C93.8633 150.872 93.8786 151.037 93.6829 151.13L92.6178 151.754ZM123.952 171.558C123.854 171.606 123.747 171.63 123.638 171.63C123.53 171.63 123.422 171.606 123.325 171.558L119.008 169.074C118.828 168.965 118.813 168.8 119.008 168.707L123.137 166.363C123.234 166.313 123.341 166.287 123.45 166.287C123.559 166.287 123.667 166.313 123.764 166.363L128.08 168.847C128.261 168.949 128.276 169.113 128.119 169.206L123.952 171.558ZM111.332 164.292C111.235 164.34 111.128 164.365 111.019 164.365C110.91 164.365 110.803 164.34 110.706 164.292L106.389 161.808C106.209 161.699 106.193 161.535 106.389 161.441L110.486 159.05C110.583 159 110.69 158.974 110.8 158.974C110.909 158.974 111.016 159 111.113 159.05L115.429 161.534C115.61 161.635 115.633 161.8 115.469 161.893L111.332 164.292ZM131.664 176.01C131.567 176.059 131.46 176.084 131.351 176.084C131.242 176.084 131.135 176.059 131.037 176.01L126.721 173.518C126.533 173.416 126.518 173.252 126.682 173.159L130.857 170.768C130.954 170.718 131.061 170.692 131.171 170.692C131.28 170.692 131.387 170.718 131.484 170.768L135.8 173.252C135.988 173.354 136.004 173.518 135.84 173.611L131.664 176.01ZM117.651 167.948C117.553 167.996 117.446 168.021 117.337 168.021C117.228 168.021 117.121 167.996 117.024 167.948L112.707 165.464C112.519 165.355 112.504 165.19 112.668 165.097L116.797 162.753C116.893 162.703 117.001 162.677 117.11 162.677C117.219 162.677 117.327 162.703 117.424 162.753L121.74 165.237C121.928 165.339 121.943 165.503 121.779 165.596L117.651 167.948ZM144.285 183.284C144.187 183.33 144.079 183.354 143.971 183.354C143.863 183.354 143.756 183.33 143.658 183.284L139.341 180.8C139.153 180.691 139.138 180.526 139.302 180.432L143.43 178.089C143.527 178.039 143.635 178.013 143.744 178.013C143.853 178.013 143.961 178.039 144.057 178.089L148.374 180.573C148.562 180.675 148.577 180.839 148.413 180.932L144.285 183.284ZM137.971 179.643C137.873 179.692 137.766 179.717 137.657 179.717C137.548 179.717 137.441 179.692 137.344 179.643L133.027 177.159C132.847 177.05 132.832 176.886 133.027 176.792L137.156 174.448C137.252 174.398 137.36 174.372 137.469 174.372C137.578 174.372 137.686 174.398 137.783 174.448L142.099 176.932C142.279 177.034 142.295 177.198 142.138 177.291L137.971 179.643ZM105.242 159.05C105.145 159.1 105.038 159.126 104.929 159.126C104.82 159.126 104.712 159.1 104.615 159.05L100.299 156.566C100.111 156.457 100.096 156.3 100.26 156.207L101.356 155.574C101.454 155.526 101.561 155.501 101.67 155.501C101.779 155.501 101.886 155.526 101.983 155.574L106.3 158.067C106.488 158.169 106.503 158.333 106.339 158.426L105.242 159.05ZM86.309 148.112C86.2122 148.162 86.1046 148.188 85.9955 148.188C85.8864 148.188 85.7789 148.162 85.682 148.112L81.3656 145.628C81.1852 145.519 81.1699 145.362 81.3656 145.269L82.4621 144.637C82.5595 144.589 82.6668 144.563 82.7756 144.563C82.8844 144.563 82.9917 144.589 83.0891 144.637L87.4056 147.129C87.5936 147.231 87.6089 147.395 87.4447 147.488L86.309 148.112ZM77.6378 153.107C77.5404 153.156 77.4331 153.181 77.3243 153.181C77.2155 153.181 77.1082 153.156 77.0108 153.107L72.6858 150.612C72.4978 150.51 72.4825 150.346 72.6467 150.253L76.7752 147.909C76.8726 147.861 76.9799 147.836 77.0887 147.836C77.1974 147.836 77.3047 147.861 77.4021 147.909L81.7186 150.402C81.9066 150.503 81.9219 150.667 81.7577 150.761L77.6378 153.107ZM65.6165 166.909L61.3 164.425C61.112 164.316 61.0967 164.159 61.3 164.066L65.4285 161.684C65.5259 161.635 65.6332 161.61 65.742 161.61C65.8507 161.61 65.9581 161.635 66.0554 161.684L70.3719 164.168C70.5599 164.277 70.5752 164.434 70.411 164.527L66.2826 166.909C66.1822 166.968 66.0682 167.001 65.9515 167.003C65.8349 167.006 65.7195 166.979 65.6165 166.924V166.909ZM98.9241 155.378C98.8273 155.428 98.7197 155.454 98.6106 155.454C98.5015 155.454 98.394 155.428 98.2971 155.378L93.9807 152.894C93.8003 152.785 93.785 152.628 93.9807 152.535L95.0772 151.903C95.1746 151.854 95.2819 151.829 95.3907 151.829C95.4995 151.829 95.6068 151.854 95.7042 151.903L100.021 154.395C100.201 154.497 100.224 154.661 100.021 154.754L98.9241 155.378ZM150.625 186.885C150.527 186.933 150.42 186.958 150.311 186.958C150.203 186.958 150.095 186.933 149.998 186.885L145.681 184.401C145.501 184.292 145.486 184.128 145.642 184.034L149.778 181.69C149.875 181.64 149.983 181.614 150.092 181.614C150.201 181.614 150.309 181.64 150.405 181.69L154.722 184.174C154.902 184.276 154.918 184.44 154.761 184.533L150.625 186.885Z" fill="#455A64"/>
<path d="M131.938 219.353L131.053 219.861L107.537 233.392L65.7298 209.323L64.8604 208.822L89.2535 194.783L131.938 219.353Z" fill="#37474F"/>
<path d="M131.054 219.861L107.538 233.392L65.7305 209.322L89.2542 195.783L131.054 219.861Z" fill="#263238"/>
</svg>
