<svg width="80" height="69" viewBox="0 0 80 69" fill="none" xmlns="http://www.w3.org/2000/svg">
<path d="M40.6122 68.0206L12.9056 50.326L0.692871 54.2324L40.6122 68.0206Z" fill="#407BFF"/>
<path d="M40.6124 68.0212L16.665 48.1L21.9836 41.9755L40.6124 68.0212Z" fill="#407BFF"/>
<path d="M16.6655 48.0995V52.7246L40.6129 68.0215L16.6655 48.0995Z" fill="#407BFF"/>
<path opacity="0.25" d="M16.6655 48.0995V52.7246L40.6129 68.0215L16.6655 48.0995Z" fill="black"/>
<path d="M12.671 47.7171C12.7894 47.7171 12.905 47.6816 13.0028 47.6152C13.1006 47.5488 13.176 47.4546 13.2192 47.3449C13.2624 47.2352 13.2713 47.1151 13.2448 47.0002C13.2184 46.8854 13.1577 46.7812 13.0708 46.7011C12.2498 45.9438 11.4927 45.1207 10.8071 44.24C10.7123 44.1165 10.5721 44.0355 10.4174 44.0149C10.2626 43.9942 10.106 44.0356 9.98188 44.1299C9.85778 44.2242 9.77641 44.3637 9.75567 44.5178C9.73493 44.6718 9.77652 44.8277 9.87128 44.9512C10.5972 45.8848 11.3991 46.7575 12.2686 47.5605C12.379 47.6598 12.5221 47.7155 12.671 47.7171ZM8.26092 41.8813C8.35354 41.8829 8.44507 41.8613 8.52718 41.8186C8.59567 41.7842 8.65663 41.7366 8.70657 41.6786C8.75651 41.6206 8.79443 41.5534 8.81815 41.4808C8.84188 41.4081 8.85093 41.3315 8.84479 41.2554C8.83865 41.1793 8.81744 41.1051 8.78238 41.0372C8.09816 39.677 7.57243 38.2433 7.2154 36.7643C7.17896 36.6134 7.08377 36.483 6.9508 36.402C6.81782 36.3209 6.65796 36.2958 6.50634 36.332C6.35472 36.3683 6.22378 36.463 6.14233 36.5954C6.06089 36.7277 6.03559 36.8868 6.07203 37.0377C6.44137 38.6042 6.99356 40.1224 7.71731 41.5613C7.7676 41.6601 7.84509 41.7426 7.94074 41.7993C8.03638 41.856 8.14622 41.8844 8.25749 41.8813H8.26092ZM6.11458 33.6233C6.19187 33.6202 6.2678 33.602 6.33801 33.5697C6.40822 33.5374 6.47134 33.4916 6.52373 33.435C6.57613 33.3783 6.61676 33.312 6.64334 33.2397C6.66991 33.1674 6.6819 33.0906 6.67859 33.0137C6.67859 32.6937 6.67859 32.3812 6.67859 32.068C6.67911 30.8611 6.78128 29.6563 6.984 28.4664C6.99691 28.3907 6.99468 28.3131 6.97746 28.2382C6.96025 28.1633 6.92837 28.0925 6.88366 28.0298C6.83895 27.9671 6.78229 27.9139 6.71689 27.873C6.65149 27.8321 6.57863 27.8045 6.5025 27.7917C6.42636 27.7788 6.34843 27.781 6.27315 27.7982C6.19788 27.8153 6.12673 27.847 6.06377 27.8915C6.00082 27.936 5.94727 27.9924 5.90621 28.0575C5.86516 28.1226 5.83739 28.1951 5.82449 28.2709C5.61246 29.5256 5.50492 30.7956 5.50293 32.068V33.0602C5.50589 33.1371 5.52402 33.2126 5.55633 33.2825C5.58864 33.3523 5.63447 33.4151 5.6912 33.4674C5.74793 33.5196 5.81445 33.5601 5.88695 33.5867C5.95945 33.6133 6.03651 33.6255 6.11372 33.6224L6.11458 33.6233ZM7.37532 25.1781C7.49832 25.1779 7.61815 25.1394 7.71796 25.0678C7.81777 24.9963 7.89252 24.8954 7.93167 24.7793C8.43815 23.3393 9.07542 21.9482 9.83556 20.6232C9.90346 20.4892 9.91861 20.3348 9.878 20.1902C9.8374 20.0456 9.74398 19.9214 9.61608 19.8418C9.482 19.7725 9.32647 19.7565 9.18099 19.7971C9.03551 19.8376 8.91098 19.9317 8.83259 20.0602C8.03824 21.4494 7.37469 22.9087 6.85043 24.4195C6.81946 24.4941 6.80429 24.5743 6.80586 24.655C6.80743 24.7357 6.82572 24.8152 6.85957 24.8885C6.89343 24.9619 6.94213 25.0275 7.00262 25.0812C7.06311 25.135 7.1341 25.1758 7.21114 25.201C7.26856 25.1993 7.3256 25.1914 7.38127 25.1773L7.37532 25.1781ZM11.497 17.671C11.5863 17.6707 11.6742 17.65 11.7543 17.6107C11.8343 17.5714 11.9043 17.5144 11.9589 17.4442C12.8986 16.2319 13.9304 15.0932 15.0453 14.0382C15.1174 13.992 15.1786 13.9308 15.2245 13.8587C15.2704 13.7866 15.2999 13.7054 15.311 13.6207C15.322 13.5361 15.3144 13.4501 15.2886 13.3687C15.2627 13.2873 15.2193 13.2125 15.1614 13.1495C15.1035 13.0866 15.0325 13.037 14.9533 13.0042C14.8741 12.9714 14.7887 12.9563 14.703 12.9598C14.6173 12.9633 14.5334 12.9854 14.4572 13.0246C14.381 13.0637 14.3143 13.119 14.2618 13.1864C13.1032 14.2838 12.0296 15.4668 11.0504 16.7254C10.9678 16.8459 10.9332 16.9927 10.9535 17.1372C10.9738 17.2817 11.0475 17.4134 11.1601 17.5068C11.253 17.5987 11.3744 17.6566 11.5046 17.671H11.497ZM17.6306 11.671C17.7577 11.6715 17.8814 11.6305 17.9828 11.5541C19.2168 10.6298 20.5067 9.78161 21.845 9.01425C21.9732 8.93499 22.0665 8.8102 22.1058 8.66512C22.1451 8.52005 22.1276 8.36552 22.0568 8.23281C21.98 8.10253 21.8548 8.00746 21.7083 7.96804C21.5618 7.92862 21.4056 7.94799 21.2733 8.022C19.8941 8.81235 18.5651 9.68631 17.2937 10.6389C17.1948 10.7126 17.1216 10.8154 17.0847 10.9327C17.0477 11.0501 17.0488 11.176 17.0878 11.2927C17.1267 11.4094 17.2016 11.5109 17.3018 11.5829C17.4019 11.6549 17.5223 11.6937 17.6459 11.6938L17.6306 11.671ZM79.1935 9.40539C79.3236 9.40638 79.4503 9.36446 79.5539 9.28619C79.6575 9.20791 79.7322 9.09769 79.7662 8.97273C79.8002 8.84778 79.7917 8.71513 79.7419 8.59551C79.6922 8.47589 79.604 8.37604 79.4913 8.31155C78.1301 7.53011 76.718 6.79608 75.2845 6.11623C75.1787 6.06882 75.0613 6.05321 74.9467 6.07132C74.832 6.08944 74.7252 6.14048 74.6394 6.21819C74.5535 6.2959 74.4923 6.39688 74.4634 6.50873C74.4344 6.62057 74.4389 6.7384 74.4764 6.84773C74.5026 6.92057 74.5434 6.98742 74.5961 7.04428C74.6489 7.10115 74.7126 7.14688 74.7835 7.17876C76.1854 7.84252 77.5721 8.5613 78.9043 9.3275C78.9946 9.37976 79.0975 9.40667 79.202 9.40539H79.1935ZM25.0172 7.30406C25.1041 7.30549 25.19 7.28664 25.2682 7.24903C26.6625 6.57681 28.0959 5.95961 29.537 5.40507C29.6108 5.37588 29.678 5.33253 29.7349 5.27748C29.7918 5.22244 29.8372 5.15678 29.8686 5.08426C29.9 5.01173 29.9168 4.93377 29.9179 4.8548C29.919 4.77584 29.9045 4.69743 29.8752 4.62405C29.8458 4.55067 29.8023 4.48376 29.747 4.42713C29.6917 4.37051 29.6257 4.32528 29.5528 4.29403C29.48 4.26278 29.4016 4.24612 29.3223 4.245C29.2429 4.24388 29.1641 4.25833 29.0904 4.28752C27.6255 4.84968 26.1606 5.48296 24.7348 6.17042C24.6172 6.22934 24.5228 6.3258 24.4668 6.44437C24.4108 6.56294 24.3963 6.69678 24.4257 6.8245C24.4551 6.95222 24.5266 7.06645 24.6289 7.14894C24.7312 7.23142 24.8584 7.27739 24.99 7.27951L25.0172 7.30406ZM71.4461 5.74118C71.5645 5.73914 71.6796 5.7025 71.7772 5.63581C71.8748 5.56911 71.9504 5.47533 71.9948 5.36613C72.0264 5.29284 72.0426 5.21391 72.0424 5.13418C72.0423 5.05445 72.0257 4.9756 71.9939 4.90244C71.962 4.82928 71.9155 4.76337 71.8571 4.70873C71.7988 4.6541 71.7299 4.61188 71.6546 4.58468C70.1897 4.01405 68.6771 3.49084 67.1662 3.0218C67.0163 2.97689 66.8546 2.9931 66.7167 3.06685C66.5788 3.1406 66.4759 3.26586 66.4308 3.41506C66.3857 3.56427 66.402 3.7252 66.4761 3.86246C66.5502 3.99972 66.676 4.10207 66.826 4.14698C68.3062 4.58468 69.7873 5.10028 71.2207 5.65482C71.2905 5.68243 71.3652 5.69568 71.4402 5.69377L71.4461 5.74118ZM33.0624 4.1783C33.1185 4.18917 33.1763 4.18917 33.2325 4.1783C34.705 3.73298 36.2168 3.34268 37.7285 3.01419C37.8832 2.97477 38.0162 2.87644 38.0988 2.74039C38.1814 2.60434 38.207 2.44144 38.17 2.2868C38.1331 2.13215 38.0366 1.99811 37.9014 1.91358C37.7661 1.82904 37.6029 1.80076 37.4469 1.83483C35.8799 2.17348 34.3605 2.56886 32.8531 3.03027C32.7788 3.0527 32.7098 3.08952 32.6499 3.13861C32.59 3.18769 32.5404 3.24808 32.504 3.31629C32.4677 3.38451 32.4452 3.45921 32.438 3.5361C32.4307 3.61298 32.4388 3.69053 32.4618 3.7643C32.4997 3.88379 32.5747 3.98823 32.6761 4.06262C32.7774 4.137 32.8999 4.17751 33.0258 4.1783H33.0624ZM63.2198 3.15557C63.3525 3.15535 63.4812 3.11047 63.585 3.02824C63.6888 2.946 63.7615 2.83125 63.7915 2.70262C63.8246 2.5506 63.7964 2.39171 63.7128 2.26024C63.6292 2.12878 63.4971 2.03528 63.3449 1.99992C61.8136 1.64857 60.2509 1.3514 58.6839 1.12535C58.6049 1.10813 58.5233 1.10726 58.444 1.1228C58.3648 1.13833 58.2895 1.16995 58.2231 1.21567C58.1566 1.26139 58.1003 1.32024 58.0577 1.38856C58.015 1.45687 57.987 1.53319 57.9753 1.61275C57.9636 1.69232 57.9685 1.77343 57.9896 1.85103C58.0108 1.92864 58.0478 2.00108 58.0983 2.06385C58.1488 2.12661 58.2118 2.17836 58.2832 2.21587C58.3547 2.25337 58.4332 2.27583 58.5137 2.28185C60.0807 2.50874 61.5848 2.79745 63.0888 3.1488L63.2198 3.15557ZM41.4273 2.2573H41.5124C43.0437 2.0304 44.5988 1.867 46.1419 1.7654C46.2238 1.7675 46.3052 1.75258 46.381 1.72159C46.4567 1.6906 46.5251 1.64422 46.5818 1.58541C46.6385 1.52661 46.6823 1.45668 46.7103 1.38009C46.7383 1.3035 46.7499 1.22194 46.7445 1.14062C46.739 1.05929 46.7165 0.980004 46.6785 0.907811C46.6405 0.835618 46.5878 0.772111 46.5237 0.721351C46.4597 0.670592 46.3856 0.633697 46.3064 0.613023C46.2272 0.592348 46.1445 0.588351 46.0637 0.601286C44.4972 0.702882 42.9305 0.866847 41.3635 1.09318C41.2183 1.11661 41.0871 1.19335 40.9958 1.30826C40.9046 1.42317 40.8599 1.56792 40.8706 1.71399C40.8813 1.86006 40.9465 1.99687 41.0535 2.09743C41.1605 2.19799 41.3015 2.25502 41.4486 2.2573H41.4273ZM54.6813 1.83398C54.834 1.83452 54.9809 1.7761 55.0911 1.67101C55.2014 1.56593 55.2664 1.42238 55.2724 1.27057C55.2785 1.11876 55.2252 0.970526 55.1236 0.857067C55.0221 0.743608 54.8803 0.673764 54.7281 0.662242C53.1611 0.536941 51.5558 0.466675 49.9812 0.466675C49.825 0.466675 49.6753 0.5284 49.5649 0.638272C49.4545 0.748143 49.3925 0.897162 49.3925 1.05254C49.3925 1.20793 49.4545 1.35694 49.5649 1.46682C49.6753 1.57669 49.825 1.63841 49.9812 1.63841C51.5482 1.63841 53.1143 1.70868 54.6345 1.83398H54.6813Z" fill="#E0E0E0"/>
</svg>
