<svg width="137" height="162" viewBox="0 0 137 162" fill="none" xmlns="http://www.w3.org/2000/svg">
<path d="M136.664 61.9263C136.628 61.2219 136.425 60.5361 136.071 59.9251C135.716 59.314 135.222 58.7952 134.628 58.4111L34.2257 0.599844C33.5948 0.280172 32.897 0.113525 32.1891 0.113525C31.4812 0.113525 30.7833 0.280172 30.1525 0.599844L27.8556 1.91975C27.2639 2.30611 26.772 2.82564 26.4195 3.43632C26.067 4.047 25.8639 4.73167 25.8267 5.43495V85.0266C25.8657 85.7295 26.0696 86.4135 26.4219 87.0239C26.7742 87.6343 27.2652 88.1542 27.8556 88.5419L128.265 146.392C128.896 146.708 129.592 146.873 130.298 146.873C131.004 146.873 131.7 146.708 132.331 146.392L134.628 145.072C135.219 144.685 135.712 144.166 136.065 143.555C136.419 142.945 136.624 142.261 136.664 141.557V61.9263Z" fill="#407BFF"/>
<g opacity="0.7">
<path d="M136.664 61.9272C136.628 61.2228 136.425 60.5369 136.071 59.9259C135.716 59.3149 135.222 58.7961 134.628 58.412L34.2257 0.600699C33.5948 0.281026 32.897 0.11438 32.1891 0.11438C31.4812 0.11438 30.7833 0.281026 30.1525 0.600699L27.8556 1.9206C27.2639 2.30696 26.772 2.8265 26.4195 3.43717C26.067 4.04785 25.8639 4.73252 25.8267 5.4358V85.0275C25.8657 85.7304 26.0696 86.4144 26.4219 87.0248C26.7742 87.6352 27.2652 88.155 27.8556 88.5427L128.265 146.393C128.896 146.709 129.592 146.874 130.298 146.874C131.004 146.874 131.7 146.709 132.331 146.393L134.628 145.073C135.219 144.686 135.712 144.167 136.065 143.556C136.419 142.946 136.624 142.261 136.664 141.558V61.9272Z" fill="white"/>
</g>
<path d="M136.069 59.9266L130.296 63.2471L26.4238 3.42846C26.7679 2.8128 27.2605 2.29201 27.8573 1.913L30.1601 0.600723C30.7871 0.277405 31.4829 0.108643 32.1891 0.108643C32.8952 0.108643 33.591 0.277405 34.218 0.600723L134.628 58.412C135.232 58.7841 135.729 59.3064 136.069 59.9275V59.9266Z" fill="#407BFF"/>
<path opacity="0.8" d="M136.069 59.9266L130.296 63.2471L26.4238 3.42846C26.7679 2.8128 27.2605 2.29201 27.8573 1.913L30.1601 0.600723C30.7871 0.277405 31.4829 0.108643 32.1891 0.108643C32.8952 0.108643 33.591 0.277405 34.218 0.600723L134.628 58.412C135.232 58.7841 135.729 59.3064 136.069 59.9275V59.9266Z" fill="white"/>
<path opacity="0.1" d="M136.664 61.9181V141.51C136.628 142.214 136.424 142.9 136.07 143.511C135.716 144.122 135.222 144.641 134.627 145.025L132.33 146.353C132.153 146.454 131.966 146.539 131.774 146.607C131.501 146.696 131.221 146.759 130.936 146.794C130.401 146.862 129.859 146.844 129.33 146.739L128.93 146.638L128.679 146.553C128.837 146.616 129.007 146.645 129.177 146.638C129.347 146.632 129.513 146.589 129.666 146.514C129.884 146.373 130.059 146.174 130.17 145.939C130.281 145.704 130.323 145.443 130.293 145.186V65.59C130.314 65.2294 130.224 64.8711 130.035 64.5627C129.846 64.2543 129.567 64.0105 129.236 63.8637L130.293 63.2465L136.066 59.926C136.431 60.5289 136.636 61.2145 136.661 61.9181H136.664Z" fill="#407BFF"/>
<path opacity="0.05" d="M136.664 61.9181V141.51C136.628 142.214 136.424 142.9 136.07 143.511C135.716 144.122 135.222 144.641 134.627 145.025L132.33 146.353C132.153 146.454 131.966 146.539 131.774 146.607C131.501 146.696 131.221 146.759 130.936 146.794C130.401 146.862 129.859 146.844 129.33 146.739L128.93 146.638L128.679 146.553C128.837 146.616 129.007 146.645 129.177 146.638C129.347 146.632 129.513 146.589 129.666 146.514C129.884 146.373 130.059 146.174 130.17 145.939C130.281 145.704 130.323 145.443 130.293 145.186V65.59C130.314 65.2294 130.224 64.8711 130.035 64.5627C129.846 64.2543 129.567 64.0105 129.236 63.8637L130.293 63.2465L136.066 59.926C136.431 60.5289 136.636 61.2145 136.661 61.9181H136.664Z" fill="black"/>
<path opacity="0.2" d="M130.296 63.2474L82.081 81.2154C80.4121 81.8364 78.5803 81.8722 76.8883 81.3168C75.1962 80.7614 73.7452 79.648 72.7751 78.1608L65.0337 66.3249L26.4236 3.42871L63.4914 66.7634L25.8281 85.0506C25.8634 85.7705 26.0818 86.4696 26.4628 87.0825L63.6088 66.9581L72.6016 81.3187C73.5983 82.9136 75.1405 84.0963 76.9442 84.6491C78.7478 85.2018 80.6914 85.0874 82.417 84.3268L88.833 81.5066L129.684 146.509C129.902 146.368 130.077 146.169 130.188 145.934C130.298 145.699 130.341 145.438 130.311 145.181V143.852L89.0363 81.416L130.296 63.2474Z" fill="#407BFF"/>
<path opacity="0.05" d="M130.296 63.2474L82.081 81.2154C80.4121 81.8364 78.5803 81.8722 76.8883 81.3168C75.1962 80.7614 73.7452 79.648 72.7751 78.1608L65.0337 66.3249L26.4236 3.42871L63.4914 66.7634L25.8281 85.0506C25.8634 85.7705 26.0818 86.4696 26.4628 87.0825L63.6088 66.9581L72.6016 81.3187C73.5983 82.9136 75.1405 84.0963 76.9442 84.6491C78.7478 85.2018 80.6914 85.0874 82.417 84.3268L88.833 81.5066L129.684 146.509C129.902 146.368 130.077 146.169 130.188 145.934C130.298 145.699 130.341 145.438 130.311 145.181V143.852L89.0363 81.416L130.296 63.2474Z" fill="black"/>
<path d="M111.208 76.599C111.17 75.8957 110.967 75.211 110.615 74.6004C110.262 73.9897 109.77 73.4701 109.179 73.0838L8.76668 15.2725C8.13722 14.9528 7.4406 14.7861 6.73392 14.7861C6.02724 14.7861 5.33062 14.9528 4.70116 15.2725L2.40426 16.5924C1.81119 16.9779 1.31774 17.4971 0.963906 18.1078C0.610071 18.7185 0.40581 19.4036 0.367676 20.1076V99.6993C0.406944 100.403 0.611679 101.088 0.965412 101.698C1.31915 102.309 1.81199 102.828 2.40426 103.214L102.808 161.027C103.44 161.343 104.137 161.507 104.844 161.507C105.552 161.507 106.249 161.343 106.881 161.027L109.2 159.672C109.79 159.283 110.28 158.763 110.632 158.153C110.984 157.543 111.189 156.859 111.229 156.157L111.208 76.599Z" fill="#407BFF"/>
<g opacity="0.5">
<path d="M111.208 76.599C111.17 75.8957 110.967 75.211 110.615 74.6004C110.262 73.9897 109.77 73.4701 109.179 73.0838L8.76668 15.2725C8.13722 14.9528 7.4406 14.7861 6.73392 14.7861C6.02724 14.7861 5.33062 14.9528 4.70116 15.2725L2.40426 16.5924C1.81119 16.9779 1.31774 17.4971 0.963906 18.1078C0.610071 18.7185 0.40581 19.4036 0.367676 20.1076V99.6993C0.406944 100.403 0.611679 101.088 0.965412 101.698C1.31915 102.309 1.81199 102.828 2.40426 103.214L102.808 161.027C103.44 161.343 104.137 161.507 104.844 161.507C105.552 161.507 106.249 161.343 106.881 161.027L109.2 159.672C109.79 159.283 110.28 158.763 110.632 158.153C110.984 157.543 111.189 156.859 111.229 156.157L111.208 76.599Z" fill="white"/>
</g>
<path d="M110.617 74.5987L104.832 77.9192L0.961426 18.1082C1.3055 17.4925 1.79811 16.9717 2.39486 16.5927L4.69772 15.2804C5.326 14.9569 6.02308 14.7881 6.73047 14.7881C7.43787 14.7881 8.13494 14.9569 8.76323 15.2804L109.2 73.0866C109.795 73.4624 110.284 73.9843 110.618 74.6021L110.617 74.5987Z" fill="#407BFF"/>
<path opacity="0.6" d="M110.617 74.5987L104.832 77.9192L0.961426 18.1082C1.3055 17.4925 1.79811 16.9717 2.39486 16.5927L4.69772 15.2804C5.326 14.9569 6.02308 14.7881 6.73047 14.7881C7.43787 14.7881 8.13494 14.9569 8.76323 15.2804L109.2 73.0866C109.795 73.4624 110.284 73.9843 110.618 74.6021L110.617 74.5987Z" fill="white"/>
<path opacity="0.1" d="M111.213 76.5904V156.182C111.175 156.88 110.973 157.56 110.624 158.167C110.274 158.773 109.786 159.29 109.199 159.674L106.912 161.003C106.731 161.103 106.543 161.188 106.348 161.257C106.075 161.346 105.795 161.409 105.51 161.444C104.975 161.512 104.433 161.493 103.904 161.389L103.512 161.28C103.429 161.257 103.347 161.225 103.27 161.186C103.423 161.252 103.589 161.287 103.756 161.287C103.923 161.287 104.088 161.252 104.242 161.186C104.459 161.042 104.633 160.841 104.744 160.605C104.854 160.37 104.897 160.108 104.869 159.85V80.2665C104.889 79.9059 104.799 79.5476 104.61 79.2392C104.421 78.9308 104.143 78.687 103.811 78.5402L104.869 77.923L110.653 74.6025C111.002 75.2089 111.195 75.8919 111.213 76.5904Z" fill="black"/>
<path opacity="0.4" d="M104.837 77.9185L56.6215 95.8865C54.9526 96.5076 53.1208 96.5433 51.4287 95.9879C49.7367 95.4325 48.2857 94.3191 47.3156 92.8319L39.5682 81.0044L0.957307 18.1074L38.0251 81.4438L0.361816 99.7311C0.397077 100.451 0.615432 101.15 0.996431 101.763L38.151 81.6309L47.1514 95.9898C48.1479 97.5829 49.6888 98.7644 51.4907 99.317C53.2927 99.8697 55.2345 99.7564 56.9592 98.9979L63.3658 96.1752L104.21 161.19C104.428 161.046 104.601 160.845 104.712 160.609C104.823 160.374 104.866 160.112 104.837 159.854V158.525L63.5624 96.0905L104.837 77.9185Z" fill="#407BFF"/>
<path opacity="0.05" d="M104.837 77.9185L56.6215 95.8865C54.9526 96.5076 53.1208 96.5433 51.4287 95.9879C49.7367 95.4325 48.2857 94.3191 47.3156 92.8319L39.5682 81.0044L0.957307 18.1074L38.0251 81.4438L0.361816 99.7311C0.397077 100.451 0.615432 101.15 0.996431 101.763L38.151 81.6309L47.1514 95.9898C48.1479 97.5829 49.6888 98.7644 51.4907 99.317C53.2927 99.8697 55.2345 99.7564 56.9592 98.9979L63.3658 96.1752L104.21 161.19C104.428 161.046 104.601 160.845 104.712 160.609C104.823 160.374 104.866 160.112 104.837 159.854V158.525L63.5624 96.0905L104.837 77.9185Z" fill="black"/>
</svg>
