<svg width="112" height="174" viewBox="0 0 112 174" fill="none" xmlns="http://www.w3.org/2000/svg">
<path d="M111.544 88.9115L7.06051 28.7567L2.8776 31.1628C2.3072 31.5356 1.83233 32.036 1.49096 32.624C1.1496 33.212 0.951194 33.8714 0.911621 34.5494V111.423C0.949936 112.102 1.14781 112.761 1.48929 113.35C1.83077 113.938 2.30631 114.438 2.8776 114.81L103.431 172.699C104.038 173.004 104.708 173.163 105.388 173.163C106.067 173.163 106.737 173.004 107.344 172.699L109.561 171.429C110.131 171.056 110.606 170.556 110.948 169.968C111.289 169.38 111.487 168.721 111.527 168.043L111.544 88.9115Z" fill="#407BFF"/>
<path opacity="0.2" d="M111.544 88.9115L7.06051 28.7567L2.8776 31.1628C2.3072 31.5356 1.83233 32.036 1.49096 32.624C1.1496 33.212 0.951194 33.8714 0.911621 34.5494V111.423C0.949936 112.102 1.14781 112.761 1.48929 113.35C1.83077 113.938 2.30631 114.438 2.8776 114.81L103.431 172.699C104.038 173.004 104.708 173.163 105.388 173.163C106.067 173.163 106.737 173.004 107.344 172.699L109.561 171.429C110.131 171.056 110.606 170.556 110.948 169.968C111.289 169.38 111.487 168.721 111.527 168.043L111.544 88.9115Z" fill="black"/>
<path d="M7.632 21.991L7.20665 21.7565L8.82809 20.8193C8.96442 20.7375 9.10862 20.6694 9.25854 20.6161L55.2417 3.61663C55.8747 3.41098 56.5567 3.40901 57.1909 3.61099C57.8251 3.81296 58.3792 4.20862 58.7747 4.7418L110.209 79.6542C111.014 80.9444 111.472 82.4186 111.54 83.9356V88.9019L109.973 89.8332L7.0918 28.7488V23.7723C7.10003 23.1398 7.28726 22.5225 7.632 21.991Z" fill="#407BFF"/>
<path opacity="0.1" d="M56.6465 5.11633C56.8512 5.27617 57.0307 5.46567 57.179 5.67849L108.621 80.5909C109.044 81.2536 109.366 81.9748 109.576 82.7312L111.143 81.8092C111.028 81.4238 110.889 81.0455 110.728 80.6764C110.658 80.5198 110.587 80.3716 110.509 80.2234L110.47 80.1532C110.388 79.9965 110.297 79.8452 110.196 79.7002L58.7647 4.78784C58.6883 4.67702 58.6029 4.57254 58.5095 4.47543L58.2356 4.22144L56.6465 5.11633Z" fill="black"/>
<path opacity="0.35" d="M7.22559 21.7482C7.36467 21.6639 7.51168 21.5933 7.66454 21.5374L53.6545 4.53789C54.1601 4.37006 54.7005 4.33361 55.2243 4.43199C55.7481 4.53038 56.2379 4.76033 56.6473 5.10004L58.2143 4.17807C57.8016 3.84165 57.3105 3.61386 56.7862 3.51563C56.2619 3.4174 55.7212 3.45188 55.2138 3.6159L9.23155 20.6078C9.08144 20.6638 8.93724 20.7344 8.80108 20.8186L7.22559 21.7482Z" fill="white"/>
<path d="M110.744 80.6287C110.674 80.4721 110.603 80.3239 110.525 80.1758C110.603 80.3239 110.674 80.473 110.744 80.6287Z" fill="#407BFF"/>
<path opacity="0.2" d="M58.7772 4.74112C58.6988 4.63178 58.6135 4.52744 58.522 4.42871C58.6172 4.52418 58.7027 4.62883 58.7772 4.74112Z" fill="black"/>
<path d="M57.1798 5.662L108.622 80.5744C109.421 81.8668 109.876 83.3401 109.946 84.8558V89.8323L5.46289 29.6775V24.7086C5.49968 24.0351 5.72536 23.3854 6.11435 22.833C6.50334 22.2807 7.04007 21.8479 7.66366 21.5837L53.6536 4.54529C54.2843 4.3342 54.9662 4.32866 55.6003 4.52947C56.2344 4.73027 56.7876 5.12698 57.1798 5.662Z" fill="#407BFF"/>
<path opacity="0.05" d="M5.46274 24.6933C5.48366 24.0703 5.6761 23.465 6.01909 22.9434L109.578 82.7154C109.798 83.4034 109.919 84.1188 109.939 84.8405V89.817L5.45508 29.6622L5.46274 24.6933Z" fill="black"/>
<path d="M9.92796 3.55384C9.90693 3.34527 9.94062 3.13484 10.0258 2.94311C10.1109 2.75138 10.2446 2.58492 10.4137 2.46L13.6098 0.62365C13.8029 0.537073 14.0155 0.503054 14.2261 0.525068C14.4367 0.547083 14.6377 0.624337 14.8085 0.748947L100.506 50.1185C101.001 50.4391 101.413 50.8715 101.709 51.3805C102.005 51.8895 102.175 52.4608 102.207 53.0478V155.386C102.23 155.595 102.197 155.807 102.11 156C102.023 156.192 101.886 156.358 101.714 156.48L98.5331 158.315C98.3404 158.401 98.1284 158.436 97.9182 158.415C97.7079 158.395 97.5067 158.32 97.3345 158.198L11.62 108.864C11.1274 108.541 10.7177 108.108 10.4238 107.599C10.13 107.09 9.96013 106.52 9.92796 105.934V3.55384Z" fill="#F0F0F0"/>
<path d="M97.3262 158.237L11.6203 108.864C11.1277 108.541 10.718 108.108 10.4241 107.599C10.1302 107.09 9.96039 106.52 9.92822 105.934V3.55376C9.92822 2.476 10.7117 2.03829 11.6203 2.57759L97.3262 51.9438C97.8188 52.2663 98.2285 52.6994 98.5224 53.2081C98.8163 53.7169 98.9861 54.2871 99.0183 54.8731V157.214C99.0183 158.315 98.2586 158.757 97.3262 158.237Z" fill="#FAFAFA"/>
<path d="M99.0249 157.237C99.0403 157.428 99.0123 157.62 98.9431 157.798C98.8739 157.977 98.7652 158.138 98.6251 158.269L101.704 156.503C101.878 156.382 102.016 156.217 102.104 156.024C102.192 155.832 102.227 155.62 102.205 155.41V53.0672C102.186 52.4788 102.013 51.9055 101.704 51.4036L98.5229 53.2314C98.8325 53.7363 99.0051 54.3124 99.024 54.9035L99.0249 157.237Z" fill="#E0E0E0"/>
<path d="M3.55908 112.441C3.59027 112.497 3.62703 112.55 3.66882 112.598L47.2147 98.8641C48.8684 98.1367 50.7305 98.0286 52.4579 98.5598C54.1854 99.0909 55.6617 100.226 56.615 101.754L103.169 170.737L104.892 171.729C105.084 171.863 105.307 171.946 105.539 171.972C105.772 171.998 106.007 171.966 106.224 171.877L58.353 100.785C57.3964 99.2597 55.9205 98.1275 54.1946 97.5955C52.4688 97.0634 50.6082 97.1669 48.9527 97.8871L3.55908 112.441Z" fill="#407BFF"/>
<path opacity="0.4" d="M60.9086 108.488L60.7988 108.394L103.172 170.737L104.896 171.729C105.089 171.861 105.311 171.943 105.543 171.969C105.775 171.995 106.01 171.963 106.227 171.877L62.5845 107.457L60.9086 108.488Z" fill="white"/>
<path opacity="0.4" d="M3.55908 112.441C3.59027 112.497 3.62703 112.549 3.66882 112.598L47.2147 98.8635C48.8681 98.1339 50.7309 98.0247 52.4589 98.556C54.187 99.0874 55.6633 100.223 56.615 101.754L58.3385 100.754C57.3812 99.2296 55.904 98.0995 54.1775 97.5708C52.4511 97.0422 50.5911 97.1503 48.9382 97.8755L3.55908 112.441Z" fill="white"/>
<path d="M0.950684 34.0604C1.04511 33.4982 1.34201 33.3416 1.73419 33.6075C1.92776 33.7516 2.0969 33.9257 2.23524 34.123L2.45473 34.4278L45.417 99.5667L51.833 108.481C52.2458 109 52.7928 109.397 53.4153 109.629C54.0378 109.862 54.7122 109.921 55.366 109.801L60.9041 108.488L103.205 92.9732C103.489 92.9153 103.782 92.9153 104.066 92.9732C104.177 92.9954 104.285 93.0294 104.388 93.0748L102.821 92.1528L62.2941 106.996L56.9594 108.894C56.3055 109.017 55.6304 108.958 55.0075 108.726C54.3846 108.493 53.8378 108.095 53.4264 107.574L47.0104 98.6684L3.83203 33.2239C3.70045 33.0457 3.5355 32.8945 3.34626 32.7786L7.08256 30.6299L5.51898 29.7324L2.93367 31.2166C2.42971 31.5355 1.99475 31.9513 1.65425 32.4396C1.31375 32.9279 1.07456 33.4789 0.950684 34.0604Z" fill="#407BFF"/>
<path opacity="0.4" d="M45.4214 99.567L51.8374 108.481C52.2501 109 52.7972 109.397 53.4197 109.63C54.0422 109.862 54.7166 109.921 55.3704 109.801L60.9085 108.489L60.7987 108.395L60.5325 107.972L56.9059 108.831C56.252 108.953 55.5769 108.895 54.954 108.662C54.3311 108.43 53.7843 108.031 53.3729 107.511L47.0199 98.6984L45.4214 99.567Z" fill="white"/>
<path opacity="0.1" d="M2.87937 31.1463L5.46467 29.6621L7.03167 30.5604L3.29538 32.7091C3.48586 32.8234 3.65109 32.9749 3.78112 33.1545L46.9595 98.599L47.0225 98.6836L45.4554 99.5506L2.48891 34.4041L2.26944 34.0993C2.13112 33.9019 1.96194 33.7279 1.76835 33.5837C1.38469 33.3179 1.0878 33.4745 0.984863 34.0367C1.0925 33.4539 1.31549 32.8982 1.64088 32.402C1.96627 31.9058 2.38756 31.4789 2.88023 31.1463H2.87937Z" fill="black"/>
<path d="M102.3 94.2151L111.52 88.9102V168.041C111.481 168.719 111.282 169.379 110.941 169.967C110.6 170.555 110.125 171.055 109.554 171.428L107.337 172.698C106.731 173.003 106.06 173.162 105.381 173.162C104.701 173.162 104.031 173.003 103.424 172.698L102.318 172.065L102.3 94.2151Z" fill="#407BFF"/>
<path opacity="0.15" d="M102.3 94.2151L111.52 88.9102V168.041C111.481 168.719 111.282 169.379 110.941 169.967C110.6 170.555 110.125 171.055 109.554 171.428L107.337 172.698C106.731 173.003 106.06 173.162 105.381 173.162C104.701 173.162 104.031 173.003 103.424 172.698L102.318 172.065L102.3 94.2151Z" fill="black"/>
<path d="M0.911621 34.5525V111.418C0.936123 112.122 1.14683 112.806 1.52243 113.403C1.81442 113.906 2.20635 114.344 2.67429 114.692L2.75255 114.731C2.7924 114.762 2.83417 114.79 2.8776 114.816L103.431 172.705C103.623 172.841 103.846 172.927 104.081 172.954C104.315 172.982 104.552 172.95 104.771 172.861C104.938 172.764 105.079 172.628 105.181 172.465C105.284 172.302 105.344 172.116 105.359 171.924C105.367 171.807 105.367 171.69 105.359 171.573V94.6988C105.377 94.4236 105.327 94.1481 105.214 93.8962C105.101 93.6443 104.929 93.4234 104.711 93.2528C104.493 93.0821 104.237 92.9667 103.965 92.9166C103.692 92.8664 103.411 92.883 103.147 92.9649L60.8463 108.48L55.3082 109.793C54.6544 109.913 53.98 109.854 53.3575 109.621C52.735 109.388 52.188 108.991 51.7752 108.473L45.3592 99.5585L2.3927 34.4196L2.17322 34.1148C1.50712 33.1149 0.911621 33.3054 0.911621 34.5525Z" fill="#407BFF"/>
<path d="M2.87748 114.816L2.74391 114.732L2.67332 114.685C2.2038 114.343 1.81144 113.906 1.52147 113.404C1.15111 112.817 0.940601 112.144 0.910645 111.451L45.4127 99.576L15.6457 122.146L2.87748 114.816Z" fill="#407BFF"/>
<path opacity="0.2" d="M2.87748 114.816L2.74391 114.732L2.67332 114.685C2.2038 114.343 1.81144 113.906 1.52147 113.404C1.15111 112.817 0.940601 112.144 0.910645 111.451L45.4127 99.576L15.6457 122.146L2.87748 114.816Z" fill="black"/>
<path d="M105.394 171.573C105.423 171.823 105.381 172.077 105.273 172.304C105.165 172.532 104.995 172.725 104.783 172.863C104.565 172.953 104.328 172.987 104.094 172.961C103.86 172.935 103.636 172.85 103.443 172.714L68.8119 152.77L60.9004 108.481L105.392 170.292L105.394 171.573Z" fill="#407BFF"/>
<path opacity="0.15" d="M56.6387 101.707L104.783 172.861C104.996 172.724 105.165 172.53 105.273 172.303C105.381 172.075 105.423 171.822 105.394 171.572V170.302L58.392 100.77L56.6387 101.707Z" fill="black"/>
<path d="M1.52246 113.401C1.81244 113.903 2.20479 114.34 2.67431 114.682L2.74492 114.729L103.428 172.706C103.621 172.842 103.845 172.926 104.079 172.952C104.313 172.978 104.551 172.944 104.768 172.854L56.6183 101.691C55.6563 100.155 54.1694 99.0161 52.431 98.4836C50.6926 97.9512 48.8194 98.0612 47.156 98.7934L1.52246 113.401Z" fill="#407BFF"/>
<path opacity="0.15" d="M111.175 81.793L109.608 82.715C109.83 83.4079 109.954 84.1282 109.977 84.8552V89.8241L111.544 88.9021V83.9256C111.521 83.2012 111.397 82.4835 111.175 81.793Z" fill="black"/>
<path d="M102.77 92.1215L104.367 93.0435L105.983 92.1122L109.955 89.8313L108.412 88.917L102.77 92.1215Z" fill="#407BFF"/>
<path opacity="0.1" d="M102.699 92.1521L108.41 88.918L109.977 89.8323L106.005 92.1132L104.389 93.0445L104.083 92.9505C103.799 92.8926 103.506 92.8926 103.222 92.9505L99.9472 94.1772L63.0437 107.732L62.4644 106.88L102.699 92.1521Z" fill="black"/>
</svg>
