<svg width="76" height="50" viewBox="0 0 76 50" fill="none" xmlns="http://www.w3.org/2000/svg">
<path d="M3.25064 24.0763L9.22003 27.5136C9.18937 27.2542 9.17375 26.9933 9.17324 26.7321V25.0135C9.17324 21.9436 11.3349 20.7007 13.9984 22.2323C15.1415 22.9391 16.1212 23.8789 16.873 24.9898C17.3034 21.1308 20.343 19.6933 24.0325 21.8183C28.0121 24.1152 31.2473 29.692 31.2473 34.3179V36.8959C31.2731 37.9264 31.0643 38.9492 30.6365 39.8879L35.5953 42.7394C36.3734 43.2483 37.0205 43.9319 37.4844 44.7353C37.9484 45.5387 38.2163 46.4393 38.2665 47.3645C38.2665 49.0679 37.0678 49.7554 35.5953 48.9274L3.25064 30.2711C2.47283 29.7639 1.82577 29.0818 1.36175 28.2798C0.897723 27.4778 0.629737 26.5785 0.579426 25.6544C0.556457 23.9196 1.7551 23.2398 3.25064 24.0763Z" fill="#F0F0F0"/>
<path d="M32.1242 4.49042L39.4718 8.71765C39.4315 8.39633 39.4105 8.07291 39.4088 7.7491V5.59105C39.4088 1.81762 42.0647 0.286057 45.3467 2.17743C46.7569 3.04099 47.9644 4.19587 48.8874 5.56395C49.4199 0.814354 53.1562 -0.955102 57.6998 1.6576C62.6033 4.48534 66.5829 11.3608 66.5829 16.9816V20.1531C66.6049 21.4228 66.337 22.6809 65.7994 23.8325L71.9015 27.3477C72.8612 27.9717 73.6598 28.8117 74.2328 29.7997C74.8058 30.7878 75.137 31.8963 75.1996 33.0354C75.1996 35.1367 73.7194 35.9808 71.9015 34.9336L32.0936 12.0254C31.1326 11.4029 30.3329 10.5633 29.7598 9.57487C29.1866 8.58649 28.8562 7.47733 28.7954 6.33777C28.8269 4.25675 30.2995 3.41351 32.1242 4.49042Z" fill="#F0F0F0"/>
</svg>
