<svg width="39" height="71" viewBox="0 0 39 71" fill="none" xmlns="http://www.w3.org/2000/svg">
<path d="M29.1775 60.3629L35.5773 56.6758C35.5773 56.6758 39.3919 40.887 37.8742 26.6839C35.7355 6.71531 24.9648 -1.97958 17.5424 0.903192C12.6083 2.84028 11.077 8.4382 19.3756 20.3325C24.2663 27.3714 30.274 41.98 29.1775 60.3629Z" fill="#407BFF"/>
<g opacity="0.3">
<path d="M29.1784 60.3629L35.5783 56.6758C35.5783 56.6758 39.3928 40.887 37.8752 26.6839C35.7365 6.71531 24.9657 -1.97958 17.5434 0.903192C12.6093 2.84028 11.078 8.4382 19.3766 20.3325C24.2673 27.3714 30.275 41.98 29.1784 60.3629Z" fill="black"/>
</g>
<path d="M31.833 52.643H31.748C31.6906 52.6325 31.636 52.6109 31.5871 52.5792C31.5383 52.5475 31.4963 52.5065 31.4635 52.4585C31.4307 52.4105 31.4078 52.3566 31.3962 52.2997C31.3846 52.2429 31.3844 52.1843 31.3958 52.1274C34.9049 33.714 28.4506 13.0131 20.4293 4.40201C20.3491 4.31511 20.3069 4.20006 20.3119 4.08217C20.317 3.96428 20.3688 3.8532 20.4561 3.77338C20.5435 3.69355 20.659 3.65153 20.7775 3.65653C20.8959 3.66153 21.0076 3.71316 21.0878 3.80005C29.2188 12.5737 35.799 33.6014 32.232 52.2908C32.2146 52.3855 32.1657 52.4716 32.0932 52.5354C32.0207 52.5991 31.9288 52.6367 31.8322 52.6422L31.833 52.643Z" fill="white"/>
<path d="M12.4142 70.0182C11.4036 70.5262 8.71707 68.2293 7.96504 67.6748C6.6816 66.7038 5.67015 65.4211 5.02756 63.9496C4.31196 62.2759 4.13368 60.423 4.51713 58.6446C4.71353 57.7057 4.97535 56.7815 5.30065 55.8787L6.21685 53.2067C6.5797 52.3462 6.76347 51.4214 6.75706 50.4882C6.61584 48.6129 5.02586 47.2303 3.57626 46.0349C2.00926 44.7065 0.333362 42.9802 0.443103 40.746C0.652764 39.0155 1.43233 37.4029 2.66005 36.1598C3.79575 34.8628 5.13561 33.73 6.17687 32.35C6.98915 31.3898 7.44799 30.1827 7.47759 28.9279C7.41335 28.1549 7.19225 27.4029 6.82765 26.7173C5.98781 25.2878 5.26467 23.7935 4.66516 22.2488C4.19472 20.6859 4.37507 18.7099 5.65198 17.655C6.80204 16.8917 8.20831 16.6109 9.56523 16.8736C10.8311 17.0941 12.0338 17.5851 13.0905 18.3128C16.5529 20.4692 18.37 24.7811 22.0757 26.4845C23.5493 27.0276 25.055 27.48 26.5844 27.8391C27.3515 28.0198 28.0721 28.3586 28.6995 28.8335C29.3269 29.3085 29.8473 29.9091 30.2271 30.5966C31.4802 33.4328 28.7308 36.7059 29.561 39.6903C30.2893 42.3309 32.7648 43.4476 34.0655 45.8622C34.5985 46.9222 34.7716 48.1256 34.5589 49.2919C34.3373 51.2689 33.7531 53.1886 32.8354 54.9558C31.8058 56.7729 30.6625 58.5238 29.4122 60.1982C29.4122 60.1982 12.5708 69.9404 12.4142 70.0182Z" fill="#407BFF"/>
<g opacity="0.15">
<path d="M12.4142 70.0181C11.4036 70.5261 8.71707 68.2292 7.96504 67.6746C6.6816 66.7037 5.67015 65.421 5.02756 63.9495C4.31196 62.2758 4.13368 60.4229 4.51713 58.6445C4.71353 57.7056 4.97535 56.7813 5.30065 55.8786L6.21685 53.2066C6.5797 52.3461 6.76347 51.4213 6.75706 50.4881C6.61584 48.6128 5.02586 47.2302 3.57626 46.0348C2.00926 44.7064 0.333362 42.9801 0.443103 40.7459C0.652764 39.0154 1.43233 37.4027 2.66005 36.1597C3.79575 34.8626 5.13561 33.7299 6.17687 32.3498C6.98915 31.3897 7.44799 30.1825 7.47759 28.9278C7.41335 28.1548 7.19225 27.4028 6.82765 26.7172C5.98781 25.2877 5.26467 23.7934 4.66516 22.2487C4.19472 20.6858 4.37507 18.7098 5.65198 17.6549C6.80204 16.8916 8.20831 16.6108 9.56523 16.8734C10.8311 17.0939 12.0338 17.585 13.0905 18.3127C16.5529 20.4691 18.37 24.781 22.0757 26.4844C23.5493 27.0275 25.055 27.4799 26.5844 27.839C27.3515 28.0197 28.0721 28.3585 28.6995 28.8334C29.3269 29.3084 29.8473 29.909 30.2271 30.5965C31.4802 33.4327 28.7308 36.7058 29.561 39.6901C30.2893 42.3308 32.7648 43.4475 34.0655 45.8621C34.5985 46.9221 34.7716 48.1255 34.5589 49.2917C34.3373 51.2687 33.7531 53.1885 32.8354 54.9557C31.8058 56.7728 30.6625 58.5237 29.4122 60.1981C29.4122 60.1981 12.5708 69.9402 12.4142 70.0181Z" fill="black"/>
</g>
<path d="M22.2146 64.9245C22.1558 64.9195 22.0986 64.903 22.0463 64.8759C21.994 64.8488 21.9475 64.8117 21.9097 64.7667C21.8718 64.7217 21.8432 64.6697 21.8256 64.6136C21.808 64.5576 21.8018 64.4987 21.8071 64.4402C23.4286 46.9251 16.1125 27.1284 10.3702 21.191C10.3214 21.1515 10.2814 21.1021 10.253 21.0462C10.2246 20.9902 10.2084 20.9289 10.2056 20.8663C10.2027 20.8037 10.2131 20.7412 10.2362 20.6829C10.2593 20.6246 10.2945 20.5718 10.3396 20.5279C10.3846 20.4841 10.4385 20.4503 10.4976 20.4287C10.5567 20.407 10.6197 20.3981 10.6825 20.4024C10.7454 20.4068 10.8066 20.4243 10.8621 20.4538C10.9177 20.4833 10.9663 20.5242 11.0049 20.5738C16.8747 26.628 24.3218 46.7609 22.6927 64.5139C22.6829 64.6306 22.6272 64.7389 22.5377 64.815C22.4481 64.8911 22.332 64.9289 22.2146 64.9203V64.9245Z" fill="white"/>
<path d="M20.4679 43.3232H20.3344C16.2248 41.9627 11.9766 41.0586 7.66736 40.6276C7.55004 40.6156 7.44222 40.558 7.36735 40.4673C7.29247 40.3766 7.25662 40.2602 7.26755 40.1433C7.27049 40.0851 7.28545 40.0281 7.31153 39.9759C7.33762 39.9238 7.37426 39.8775 7.41914 39.8401C7.46402 39.8026 7.51619 39.7748 7.57237 39.7584C7.62855 39.742 7.68753 39.7372 7.74563 39.7445C12.131 40.1899 16.4546 41.1093 20.6398 42.4868C20.737 42.5251 20.8177 42.5961 20.8678 42.6875C20.9179 42.7788 20.9342 42.8848 20.914 42.9869C20.8938 43.089 20.8383 43.1809 20.7571 43.2465C20.6759 43.3121 20.5742 43.3474 20.4696 43.3461L20.4679 43.3232Z" fill="white"/>
</svg>
