<svg width="67" height="105" viewBox="0 0 67 105" fill="none" xmlns="http://www.w3.org/2000/svg">
<g filter="url(#filter0_d_564_107)">
<path d="M36.1281 31.4745H28.3726V100.852H36.1281V31.4745Z" fill="#423F63"/>
<path d="M10.9471 4.92944C6.27451 4.92944 2.48633 8.3388 2.48633 12.5441V31.4749H10.9471H54.5429V4.92944H10.9471Z" fill="#407AFF"/>
<path d="M63.0037 31.4746H46.0825V12.5439C46.0825 8.33856 49.8707 4.9292 54.5433 4.9292C59.2159 4.9292 63.0041 8.33856 63.0041 12.5439L63.0037 31.4746Z" fill="#A1BEFF"/>
<path d="M64.6882 31.4746H47.7671V12.5439C47.7671 8.33856 51.5548 4.9292 56.2279 4.9292C60.9005 4.9292 64.6887 8.33856 64.6887 12.5439V31.4746H64.6882Z" fill="#163EA7"/>
<path d="M46.0821 31.4745H2.48633V33.378H46.0821V31.4745Z" fill="#A1BEFF"/>
<path d="M63.0037 31.4745H46.0825V33.378H63.0037V31.4745Z" fill="#163EA7"/>
<path d="M37.5432 19.9825C39.3604 19.9825 40.8335 18.6567 40.8335 17.0212C40.8335 15.3857 39.3604 14.0599 37.5432 14.0599C35.7261 14.0599 34.2529 15.3857 34.2529 17.0212C34.2529 18.6567 35.7261 19.9825 37.5432 19.9825Z" fill="#A9BCFF"/>
<path d="M39.6222 2.00068C39.6222 1.1636 38.8682 0.484619 37.9377 0.484619H31.6284C30.6983 0.484619 29.9443 1.16321 29.9443 2.00068V4.40077C29.9443 5.23785 30.6983 5.91643 31.6284 5.91643H35.4636V17.0211C35.4636 18.0546 36.3945 18.8925 37.5429 18.8925C38.6912 18.8925 39.6222 18.0546 39.6222 17.0211V2.00068Z" fill="#B5D7FF"/>
</g>
<defs>
<filter id="filter0_d_564_107" x="0.726328" y="0.484619" width="65.7221" height="103.887" filterUnits="userSpaceOnUse" color-interpolation-filters="sRGB">
<feFlood flood-opacity="0" result="BackgroundImageFix"/>
<feColorMatrix in="SourceAlpha" type="matrix" values="0 0 0 0 0 0 0 0 0 0 0 0 0 0 0 0 0 0 127 0" result="hardAlpha"/>
<feOffset dy="1.76"/>
<feGaussianBlur stdDeviation="0.88"/>
<feComposite in2="hardAlpha" operator="out"/>
<feColorMatrix type="matrix" values="0 0 0 0 0 0 0 0 0 0 0 0 0 0 0 0 0 0 0.25 0"/>
<feBlend mode="normal" in2="BackgroundImageFix" result="effect1_dropShadow_564_107"/>
<feBlend mode="normal" in="SourceGraphic" in2="effect1_dropShadow_564_107" result="shape"/>
</filter>
</defs>
</svg>
