<svg width="269" height="139" viewBox="0 0 269 139" fill="none" xmlns="http://www.w3.org/2000/svg">
<path d="M242.647 138.852C254.538 125.885 270.005 91.2423 247.136 52.6537C222.423 10.9517 136.423 -16.6621 80.0664 12.074C23.7103 40.8102 35.2688 116.494 43.0225 138.852H242.647V138.852Z" fill="url(#paint0_linear_564_95)"/>
<path d="M19.1427 138.852C19.1427 138.852 11.1837 117.762 22.7334 103.634C40.105 82.3866 78.5591 102.971 104.98 84.6615C131.401 66.3522 180.414 42.918 228.469 65.1461C276.525 87.3743 268.567 127.092 265.695 138.852H19.1427Z" fill="#14316C"/>
<path d="M10.0959 18.3762C18.115 18.5844 46.3124 18.6498 54.0039 18.2541C61.6955 17.8585 60.8924 14.4785 56.7151 14.0785C52.5382 13.6786 54.1687 10.2907 48.9769 11.2745C43.7852 12.2584 42.532 12.2564 37.7216 7.4758C32.9111 2.69518 24.4908 2.18801 21.3922 7.4758C19.2303 11.165 18.2984 12.874 13.8889 11.6111C9.47937 10.3482 6.81303 13.1111 5.51856 14.4976C4.36802 15.7304 0.203284 15.314 0.00326584 16.9075C-0.197188 18.501 8.89235 18.3453 10.0959 18.3762Z" fill="url(#paint1_linear_564_95)"/>
<path d="M202.259 138.852C202.259 138.852 203.738 133.683 187.347 125.024C170.956 116.365 166.935 97.4974 140.801 97.7557C114.668 98.014 106.483 130.064 113.088 138.852H202.259V138.852Z" fill="url(#paint2_linear_564_95)"/>
<defs>
<linearGradient id="paint0_linear_564_95" x1="36.4679" y1="69.5547" x2="258.901" y2="69.5547" gradientUnits="userSpaceOnUse">
<stop offset="1" stop-color="#C2D7FF"/>
</linearGradient>
<linearGradient id="paint1_linear_564_95" x1="-0.000125782" y1="11.1202" x2="59.8393" y2="11.1202" gradientUnits="userSpaceOnUse">
<stop offset="0.004" stop-color="#D8E3FF"/>
<stop offset="1" stop-color="#D2DFFF"/>
</linearGradient>
<linearGradient id="paint2_linear_564_95" x1="137.368" y1="152.82" x2="167.645" y2="105.837" gradientUnits="userSpaceOnUse">
<stop stop-color="#B6CCBD"/>
<stop offset="1" stop-color="#D1E7D9"/>
</linearGradient>
</defs>
</svg>
