<svg width="109" height="150" viewBox="0 0 109 150" fill="none" xmlns="http://www.w3.org/2000/svg">
<g filter="url(#filter0_d_1_721)">
<path d="M84.4219 141.436C84.4219 141.436 87.3996 95.6194 69.6799 65.8036C47.9676 29.2693 54.0876 -4.89027 82.5452 1.78475C104.405 6.91221 104.292 98.4922 104.131 141.436H84.4219Z" fill="url(#paint0_linear_1_721)"/>
<path d="M71.603 29.2684C71.603 29.2684 101.207 70.0293 94.5605 141.436" stroke="#F9F9F9" stroke-width="0.99314" stroke-miterlimit="10" stroke-linecap="round"/>
<path d="M35.709 141.436C42.119 120.606 37.6319 93.3647 13.5956 74.4558C-10.4407 55.5479 20.0047 33.4344 46.2841 46.2535C72.5635 59.0726 93.3944 96.8895 86.3441 141.436H35.709V141.436Z" fill="url(#paint1_linear_1_721)"/>
<path d="M40.5161 71.2513C40.5161 71.2513 69.6799 99.1326 63.9112 141.437" stroke="#F9F9F9" stroke-width="0.99314" stroke-miterlimit="10" stroke-linecap="round"/>
</g>
<defs>
<filter id="filter0_d_1_721" x="0.863281" y="0.944092" width="107.294" height="148.989" filterUnits="userSpaceOnUse" color-interpolation-filters="sRGB">
<feFlood flood-opacity="0" result="BackgroundImageFix"/>
<feColorMatrix in="SourceAlpha" type="matrix" values="0 0 0 0 0 0 0 0 0 0 0 0 0 0 0 0 0 0 127 0" result="hardAlpha"/>
<feOffset dy="4"/>
<feGaussianBlur stdDeviation="2"/>
<feComposite in2="hardAlpha" operator="out"/>
<feColorMatrix type="matrix" values="0 0 0 0 0 0 0 0 0 0 0 0 0 0 0 0 0 0 0.25 0"/>
<feBlend mode="normal" in2="BackgroundImageFix" result="effect1_dropShadow_1_721"/>
<feBlend mode="normal" in="SourceGraphic" in2="effect1_dropShadow_1_721" result="shape"/>
</filter>
<linearGradient id="paint0_linear_1_721" x1="76.029" y1="21.2637" x2="94.7141" y2="142.299" gradientUnits="userSpaceOnUse">
<stop stop-color="#60BEC8"/>
<stop offset="1" stop-color="#4BA5AA"/>
</linearGradient>
<linearGradient id="paint1_linear_1_721" x1="65.8669" y1="141.249" x2="38.459" y2="61.4914" gradientUnits="userSpaceOnUse">
<stop stop-color="#B6CCBD"/>
<stop offset="1" stop-color="#D1E7D9"/>
</linearGradient>
</defs>
</svg>
