<svg width="53" height="66" viewBox="0 0 53 66" fill="none" xmlns="http://www.w3.org/2000/svg">
<g filter="url(#filter0_d_564_100)">
<path d="M41.3411 61.8521C41.3411 61.8521 42.7969 41.6925 34.1339 28.5736C23.519 12.4985 26.511 -2.53172 40.4236 0.405292C51.1107 2.66137 51.0555 42.9566 50.9768 61.8521H41.3411Z" fill="url(#paint0_linear_564_100)"/>
<path d="M35.0737 12.498C35.0737 12.498 49.5468 30.4328 46.2974 61.852" stroke="#F9F9F9" stroke-width="0.436982" stroke-miterlimit="10" stroke-linecap="round"/>
<path d="M17.5254 61.8521C20.6592 52.6865 18.4655 40.7005 6.71444 32.3806C-5.03665 24.0611 9.84777 14.3312 22.6955 19.9716C35.5432 25.612 45.7272 42.2514 42.2803 61.8517H17.5254V61.8521Z" fill="url(#paint1_linear_564_100)"/>
<path d="M19.8755 30.9707C19.8755 30.9707 34.1333 43.2385 31.3131 61.8522" stroke="#F9F9F9" stroke-width="0.436982" stroke-miterlimit="10" stroke-linecap="round"/>
</g>
<defs>
<filter id="filter0_d_564_100" x="0.685312" y="0.0354004" width="52.0644" height="65.5554" filterUnits="userSpaceOnUse" color-interpolation-filters="sRGB">
<feFlood flood-opacity="0" result="BackgroundImageFix"/>
<feColorMatrix in="SourceAlpha" type="matrix" values="0 0 0 0 0 0 0 0 0 0 0 0 0 0 0 0 0 0 127 0" result="hardAlpha"/>
<feOffset dy="1.76"/>
<feGaussianBlur stdDeviation="0.88"/>
<feComposite in2="hardAlpha" operator="out"/>
<feColorMatrix type="matrix" values="0 0 0 0 0 0 0 0 0 0 0 0 0 0 0 0 0 0 0.25 0"/>
<feBlend mode="normal" in2="BackgroundImageFix" result="effect1_dropShadow_564_100"/>
<feBlend mode="normal" in="SourceGraphic" in2="effect1_dropShadow_564_100" result="shape"/>
</filter>
<linearGradient id="paint0_linear_564_100" x1="37.2379" y1="8.97605" x2="44.6701" y2="62.4682" gradientUnits="userSpaceOnUse">
<stop stop-color="#60BEC8"/>
<stop offset="1" stop-color="#4BA5AA"/>
</linearGradient>
<linearGradient id="paint1_linear_564_100" x1="32.2693" y1="61.7694" x2="21.1935" y2="25.9577" gradientUnits="userSpaceOnUse">
<stop stop-color="#B6CCBD"/>
<stop offset="1" stop-color="#D1E7D9"/>
</linearGradient>
</defs>
</svg>
