<svg width="62" height="58" viewBox="0 0 62 58" fill="none" xmlns="http://www.w3.org/2000/svg">
<path d="M60.4176 32.2137L34.2964 57.75L31.9863 54.1407L56.686 29.236V29.1457L37.5837 9.47461L39.0053 5.41406L61.5726 28.9652L60.4176 32.2137Z" fill="white"/>
<path fill-rule="evenodd" clip-rule="evenodd" d="M19.6182 40.425C19.894 39.5047 20.2618 38.6764 20.6296 37.8481C22.1926 34.627 24.3074 31.774 26.606 29.1051C29.6402 25.6999 33.0422 22.6629 36.9039 20.178C38.5589 19.0736 40.3059 18.1533 42.2367 17.5091C42.3287 17.417 42.5126 17.417 42.6965 17.325L41.5931 18.7055C40.3978 20.178 39.1106 21.6505 38.0992 23.3071C38.0072 23.4912 37.9153 23.4912 37.7314 23.4912C36.9958 23.6752 36.1683 23.8593 35.3408 23.8593C35.6167 24.2274 36.0764 24.4115 36.4442 24.5955C36.6281 24.6876 36.9958 24.6876 37.0878 24.9637C37.0878 25.1477 36.8119 25.4238 36.72 25.6079C36.5361 26.068 36.1683 26.3441 35.7086 26.4362C34.973 26.6202 34.2375 26.8043 33.41 26.8043C33.41 26.9884 33.5019 26.9884 33.5939 27.0804C34.0536 27.4485 34.6053 27.7246 35.1569 27.9087C35.3408 28.0007 35.3408 28.0927 35.2489 28.2768C35.065 28.737 34.6972 28.921 34.2375 29.0131C33.0422 29.3812 31.8469 29.6573 30.6516 29.7493H30.5597C30.8355 30.0254 31.1113 30.2095 31.3872 30.3935C31.9388 30.6696 32.4905 30.8537 33.1341 31.0378C33.2261 31.0378 33.318 31.1298 33.2261 31.2218C32.7664 31.8661 32.3066 32.5103 31.663 32.9704C31.2033 33.4306 30.6516 33.4306 30.008 33.4306H27.8932C27.3416 33.4306 26.7899 33.4306 26.2382 33.5226C25.7785 33.6147 25.4107 33.7987 25.1349 34.1668C24.2154 35.1792 23.6638 36.4676 23.0201 37.6641L22.7443 38.2162C22.5604 38.9525 22.1007 39.3206 21.4571 39.5967C20.9054 39.6888 20.2618 40.0569 19.6182 40.425Z" fill="white"/>
<path opacity="0.98" d="M1.06617 25.6266L27.1874 0L29.4974 3.60938L4.79777 28.6043V28.6945L23.9889 48.2754L22.5673 52.3359L0 28.875L1.06617 25.6266Z" fill="white"/>
</svg>
