<svg width="50" height="47" viewBox="0 0 50 47" fill="none" xmlns="http://www.w3.org/2000/svg">
<path d="M48.3339 25.771L27.4369 46.2001L25.5889 43.3126L45.3486 23.3888V23.3166L30.0668 7.57974L31.204 4.3313L49.2579 23.1722L48.3339 25.771Z" fill="white"/>
<path fill-rule="evenodd" clip-rule="evenodd" d="M15.6943 32.3401C15.915 31.6039 16.2092 30.9412 16.5035 30.2786C17.7539 27.7017 19.4457 25.4193 21.2846 23.2842C23.712 20.56 26.4336 18.1304 29.5229 16.1425C30.8469 15.259 32.2445 14.5227 33.7892 14.0074C33.8627 13.9337 34.0098 13.9337 34.157 13.8601L33.2743 14.9645C32.3181 16.1425 31.2883 17.3205 30.4791 18.6458C30.4056 18.793 30.332 18.793 30.1849 18.793C29.5965 18.9403 28.9345 19.0875 28.2725 19.0875C28.4931 19.382 28.8609 19.5293 29.1551 19.6765C29.3022 19.7501 29.5965 19.7501 29.67 19.971C29.67 20.1183 29.4494 20.3392 29.3758 20.4864C29.2287 20.8545 28.9345 21.0754 28.5667 21.149C27.9782 21.2963 27.3898 21.4435 26.7278 21.4435C26.7278 21.5908 26.8013 21.5908 26.8749 21.6644C27.2427 21.9589 27.684 22.1798 28.1253 22.327C28.2725 22.4007 28.2725 22.4743 28.1989 22.6215C28.0518 22.9897 27.7576 23.1369 27.3898 23.2105C26.4336 23.505 25.4773 23.7259 24.5211 23.7995H24.4475C24.6682 24.0204 24.8889 24.1677 25.1095 24.3149C25.5509 24.5358 25.9922 24.6831 26.5071 24.8303C26.5807 24.8303 26.6542 24.9039 26.5807 24.9776C26.2129 25.4929 25.8451 26.0083 25.3302 26.3764C24.9624 26.7446 24.5211 26.7446 24.0062 26.7446H22.3144C21.8731 26.7446 21.4317 26.7446 20.9904 26.8182C20.6226 26.8918 20.3284 27.0391 20.1077 27.3336C19.3722 28.1435 18.9308 29.1742 18.4159 30.1313L18.1953 30.5731C18.0481 31.1621 17.6804 31.4566 17.1655 31.6775C16.7241 31.7511 16.2092 32.0456 15.6943 32.3401Z" fill="white"/>
<path opacity="0.98" d="M0.852937 20.5013L21.7499 0L23.5979 2.8875L3.83822 22.8834V22.9556L19.1911 38.6203L18.0538 41.8688L0 23.1L0.852937 20.5013Z" fill="white"/>
</svg>
