<svg width="14" height="18" viewBox="0 0 14 18" fill="none" xmlns="http://www.w3.org/2000/svg">
<path d="M12.3635 4.18291C11.8761 3.21457 11.155 2.38524 10.2664 1.77115C9.37778 1.15706 8.35026 0.777931 7.27826 0.668609C6.79331 0.619578 6.30472 0.619578 5.81978 0.668609C4.7478 0.778003 3.7203 1.15712 2.83168 1.77114C1.94306 2.38515 1.22182 3.21436 0.734242 4.18259C0.120792 5.41798 -0.116159 6.80868 0.0532352 8.17951C0.222629 9.55035 0.790792 10.84 1.68616 11.8861L6.05233 17.2353C6.11263 17.3092 6.18843 17.3688 6.27428 17.4097C6.36013 17.4505 6.4539 17.4717 6.54886 17.4717C6.64381 17.4717 6.73758 17.4505 6.82344 17.4097C6.90929 17.3688 6.98509 17.3092 7.04538 17.2353L11.4116 11.8861C12.3069 10.8401 12.8751 9.55047 13.0445 8.17968C13.2139 6.8089 12.9769 5.41825 12.3635 4.18291ZM6.54886 9.69913C6.04036 9.69913 5.54328 9.54718 5.12048 9.2625C4.69768 8.97782 4.36814 8.57319 4.17355 8.09978C3.97895 7.62637 3.92804 7.10545 4.02724 6.60288C4.12644 6.10031 4.37131 5.63867 4.73087 5.27634C5.09044 4.91401 5.54855 4.66726 6.04728 4.56729C6.54601 4.46733 7.06295 4.51863 7.53274 4.71473C8.00254 4.91082 8.40407 5.24289 8.68658 5.66894C8.96909 6.095 9.11988 6.59591 9.11988 7.10832C9.11908 7.7952 8.84795 8.45371 8.36596 8.93941C7.88397 9.4251 7.23049 9.69832 6.54886 9.69913Z" fill="#DDDDDD"/>
</svg>
