<svg width="172" height="24" viewBox="0 0 172 24" fill="none" xmlns="http://www.w3.org/2000/svg">
<path d="M23.3634 12.1C23.3634 15.5295 22.1122 18.3873 19.6098 20.6736L22.2956 23.4236H19.2215L17.8301 22C16.0396 23.1 14.1196 23.65 12.0702 23.65C9.15792 23.65 6.53686 22.5501 4.20702 20.35C1.89876 18.1285 0.744629 15.3785 0.744629 12.1C0.744629 8.82162 1.89876 6.0824 4.20702 3.8824C6.53686 1.66083 9.15792 0.550049 12.0702 0.550049C15.0472 0.550049 17.6683 1.65005 19.9334 3.85005C22.2201 6.05005 23.3634 8.80005 23.3634 12.1ZM12.0702 21.0942C13.5156 21.0942 14.8207 20.7706 15.9856 20.1236L11.1965 15.2059H14.2706L17.7977 18.8295C19.6098 17.0824 20.5159 14.8393 20.5159 12.1C20.5159 9.46868 19.6853 7.31181 18.0242 5.62946C16.3847 3.92554 14.4001 3.07358 12.0702 3.07358C9.86982 3.07358 7.90671 3.92554 6.18091 5.62946C4.47668 7.33338 3.62456 9.49024 3.62456 12.1C3.62456 14.6883 4.47668 16.8344 6.18091 18.5383C7.90671 20.2422 9.86982 21.0942 12.0702 21.0942Z" fill="white"/>
<path d="M40.6698 6.60005H43.2586V23.4236H40.6698V19.3471C40.4541 20.2746 39.8069 21.2236 38.7283 22.1942C37.6497 23.1648 36.2906 23.65 34.6511 23.65C32.839 23.65 31.3397 23.0677 30.1532 21.903C28.9667 20.7383 28.3735 18.9373 28.3735 16.5V6.60005H30.9622V16.4353C30.9622 18.1393 31.3289 19.3902 32.0624 20.1883C32.7959 20.9863 33.7882 21.3853 35.0394 21.3853C36.4416 21.3853 37.6605 20.8461 38.696 19.7677C39.7314 18.6677 40.3894 17.4814 40.6698 16.2089V6.60005Z" fill="white"/>
<path d="M51.484 0.776518V3.20299H48.863V0.776518H51.484ZM51.484 6.60005V23.4236H48.863V6.60005H51.484Z" fill="white"/>
<path d="M59.9555 0.776518V23.4236H57.3344V0.776518H59.9555Z" fill="white"/>
<path d="M68.2727 0.776518V23.4236H65.6516V0.776518H68.2727Z" fill="white"/>
<path d="M91.3455 23.4236L88.5303 17.1148H78.4344L75.6191 23.4236H72.7392L83.1911 0.776518H83.7736L94.1931 23.4236H91.3455ZM79.4375 14.85H87.5272L83.4823 5.72652L79.4375 14.85Z" fill="white"/>
<path d="M110.538 6.60005H113.127V23.4236H110.538V19.3471C110.323 20.2746 109.675 21.2236 108.597 22.1942C107.518 23.1648 106.159 23.65 104.52 23.65C102.708 23.65 101.208 23.0677 100.022 21.903C98.8353 20.7383 98.242 18.9373 98.242 16.5V6.60005H100.831V16.4353C100.831 18.1393 101.197 19.3902 101.931 20.1883C102.664 20.9863 103.657 21.3853 104.908 21.3853C106.31 21.3853 107.529 20.8461 108.564 19.7677C109.6 18.6677 110.258 17.4814 110.538 16.2089V6.60005Z" fill="white"/>
<path d="M131.74 0.776518H134.328V23.4236H131.74V20.1236C131.287 21.1589 130.532 22.0108 129.475 22.6795C128.418 23.3265 127.242 23.65 125.947 23.65C123.92 23.65 122.086 22.8844 120.446 21.353C118.807 19.8216 117.987 17.7079 117.987 15.0118C117.987 13.6314 118.235 12.3804 118.731 11.2589C119.228 10.1157 119.864 9.20985 120.641 8.54123C121.417 7.85103 122.259 7.3226 123.165 6.95593C124.092 6.58926 125.02 6.40593 125.947 6.40593C127.263 6.40593 128.45 6.71868 129.507 7.34417C130.564 7.96966 131.308 8.78926 131.74 9.80299V0.776518ZM122.323 19.703C123.488 20.8246 124.804 21.3853 126.271 21.3853C127.738 21.3853 129.032 20.8461 130.154 19.7677C131.276 18.6677 131.837 17.0824 131.837 15.0118C131.837 12.9412 131.276 11.3667 130.154 10.2883C129.032 9.20985 127.738 8.67064 126.271 8.67064C124.804 8.67064 123.488 9.23142 122.323 10.353C121.158 11.4746 120.576 13.0275 120.576 15.0118C120.576 16.9961 121.158 18.5599 122.323 19.703Z" fill="white"/>
<path d="M142.373 0.776518V3.20299H139.752V0.776518H142.373ZM142.373 6.60005V23.4236H139.752V6.60005H142.373Z" fill="white"/>
<path d="M153.239 21.353C153.973 21.353 154.717 21.1804 155.472 20.8353V23.0353C154.695 23.4236 153.735 23.6177 152.592 23.6177C150.413 23.6177 149.324 22.4206 149.324 20.0265V8.73534H147.253V6.60005H149.324V3.68828H151.912V6.60005H155.439V8.73534H151.912V19.8001C151.912 20.8353 152.355 21.353 153.239 21.353Z" fill="white"/>
<path d="M168.751 10.6118C167.996 9.27456 166.875 8.60593 165.386 8.60593C164.566 8.60593 163.898 8.82162 163.38 9.25299C162.884 9.66279 162.636 10.1697 162.636 10.7736C162.636 11.3344 162.808 11.8089 163.153 12.1971C163.52 12.5853 164.146 12.9304 165.03 13.2324L166.745 13.8471C168.406 14.4295 169.647 15.0657 170.466 15.7559C171.286 16.4461 171.696 17.4599 171.696 18.7971C171.696 20.2638 171.06 21.4393 169.787 22.3236C168.514 23.2079 167.09 23.65 165.515 23.65C164.027 23.65 162.668 23.251 161.438 22.453C160.209 21.655 159.41 20.5873 159.044 19.25L161.309 18.6353C161.589 19.4765 162.129 20.1559 162.927 20.6736C163.725 21.1697 164.588 21.4177 165.515 21.4177C166.422 21.4177 167.23 21.1804 167.942 20.7059C168.654 20.2099 169.01 19.5736 169.01 18.7971C169.01 18.1285 168.784 17.5785 168.331 17.1471C167.878 16.7157 167.187 16.3383 166.26 16.0148L164.318 15.3353C162.765 14.7746 161.654 14.1491 160.985 13.4589C160.317 12.7687 159.982 11.8844 159.982 10.8059C159.982 9.55495 160.5 8.50887 161.535 7.6677C162.592 6.82652 163.865 6.40593 165.354 6.40593C168.05 6.40593 169.97 7.60299 171.114 9.99711L168.751 10.6118Z" fill="white"/>
</svg>
