<svg width="215" height="30" viewBox="0 0 215 30" fill="none" xmlns="http://www.w3.org/2000/svg">
<path d="M28.9542 14.875C28.9542 19.1618 27.3902 22.7341 24.2622 25.5919L27.6194 29.0294H23.7768L22.0375 27.25C19.7993 28.625 17.3994 29.3125 14.8376 29.3125C11.1973 29.3125 7.92095 27.9375 5.00866 25.1875C2.12333 22.4105 0.680664 18.973 0.680664 14.875C0.680664 10.777 2.12333 7.35294 5.00866 4.60294C7.92095 1.82598 11.1973 0.4375 14.8376 0.4375C18.5589 0.4375 21.8352 1.8125 24.6666 4.5625C27.525 7.3125 28.9542 10.75 28.9542 14.875ZM14.8376 26.1176C16.6444 26.1176 18.2758 25.7132 19.7319 24.9044L13.7455 18.7574H17.5881L21.997 23.2868C24.2622 21.1029 25.3947 18.299 25.3947 14.875C25.3947 11.5858 24.3565 8.8897 22.2802 6.78676C20.2308 4.65686 17.7499 3.59191 14.8376 3.59191C12.0871 3.59191 9.63327 4.65686 7.47602 6.78676C5.34573 8.91667 4.28058 11.6127 4.28058 14.875C4.28058 18.1103 5.34573 20.7929 7.47602 22.9228C9.63327 25.0527 12.0871 26.1176 14.8376 26.1176Z" fill="white"/>
<path d="M50.5872 8H53.8231V29.0294H50.5872V23.9338C50.3175 25.0931 49.5086 26.2794 48.1603 27.4926C46.812 28.7059 45.1132 29.3125 43.0638 29.3125C40.7986 29.3125 38.9245 28.5846 37.4414 27.1287C35.9583 25.6728 35.2168 23.4216 35.2168 20.375V8H38.4526V20.2941C38.4526 22.424 38.911 23.9877 39.8279 24.9853C40.7447 25.9828 41.9851 26.4816 43.5491 26.4816C45.3019 26.4816 46.8255 25.8076 48.1198 24.4596C49.4142 23.0846 50.2366 21.6017 50.5872 20.011V8Z" fill="white"/>
<path d="M64.1049 0.720587V3.75368H60.8286V0.720587H64.1049ZM64.1049 8V29.0294H60.8286V8H64.1049Z" fill="white"/>
<path d="M74.6942 0.720587V29.0294H71.4179V0.720587H74.6942Z" fill="white"/>
<path d="M85.0907 0.720587V29.0294H81.8144V0.720587H85.0907Z" fill="white"/>
<path d="M113.932 29.0294L110.413 21.1434H97.7928L94.2738 29.0294H90.6739L103.739 0.720587H104.467L117.491 29.0294H113.932ZM99.0467 18.3125H109.159L104.103 6.90809L99.0467 18.3125Z" fill="white"/>
<path d="M137.923 8H141.159V29.0294H137.923V23.9338C137.653 25.0931 136.844 26.2794 135.496 27.4926C134.148 28.7059 132.449 29.3125 130.399 29.3125C128.134 29.3125 126.26 28.5846 124.777 27.1287C123.294 25.6728 122.552 23.4216 122.552 20.375V8H125.788V20.2941C125.788 22.424 126.247 23.9877 127.164 24.9853C128.08 25.9828 129.321 26.4816 130.885 26.4816C132.638 26.4816 134.161 25.8076 135.455 24.4596C136.75 23.0846 137.572 21.6017 137.923 20.011V8Z" fill="white"/>
<path d="M164.425 0.720587H167.66V29.0294H164.425V24.9044C163.858 26.1985 162.914 27.2635 161.593 28.0993C160.272 28.9081 158.802 29.3125 157.184 29.3125C154.649 29.3125 152.357 28.3554 150.308 26.4412C148.259 24.527 147.234 21.8848 147.234 18.5147C147.234 16.7892 147.544 15.2255 148.164 13.8235C148.784 12.3946 149.58 11.2623 150.551 10.4265C151.521 9.56372 152.573 8.90319 153.706 8.44485C154.865 7.98652 156.025 7.75735 157.184 7.75735C158.829 7.75735 160.312 8.14828 161.634 8.93015C162.955 9.71201 163.885 10.7365 164.425 12.0037V0.720587ZM152.654 24.3787C154.11 25.7806 155.755 26.4816 157.589 26.4816C159.422 26.4816 161.04 25.8076 162.443 24.4596C163.845 23.0846 164.546 21.1029 164.546 18.5147C164.546 15.9265 163.845 13.9583 162.443 12.6103C161.04 11.2623 159.422 10.5882 157.589 10.5882C155.755 10.5882 154.11 11.2892 152.654 12.6912C151.198 14.0931 150.47 16.0343 150.47 18.5147C150.47 20.9951 151.198 22.9498 152.654 24.3787Z" fill="white"/>
<path d="M177.716 0.720587V3.75368H174.44V0.720587H177.716ZM177.716 8V29.0294H174.44V8H177.716Z" fill="white"/>
<path d="M191.299 26.4412C192.216 26.4412 193.146 26.2255 194.09 25.7941V28.5441C193.119 29.0294 191.919 29.2721 190.49 29.2721C187.766 29.2721 186.404 27.7757 186.404 24.7831V10.6691H183.816V8H186.404V4.36029H189.64V8H194.049V10.6691H189.64V24.5C189.64 25.7941 190.193 26.4412 191.299 26.4412Z" fill="white"/>
<path d="M210.689 13.0147C209.745 11.3431 208.343 10.5074 206.482 10.5074C205.458 10.5074 204.622 10.777 203.975 11.3162C203.354 11.8284 203.044 12.462 203.044 13.2169C203.044 13.9179 203.26 14.511 203.692 14.9963C204.15 15.4816 204.932 15.913 206.038 16.2904L208.181 17.0588C210.258 17.7868 211.808 18.5821 212.833 19.4449C213.858 20.3076 214.37 21.5748 214.37 23.2463C214.37 25.0797 213.574 26.549 211.983 27.6544C210.392 28.7598 208.613 29.3125 206.644 29.3125C204.784 29.3125 203.085 28.8137 201.548 27.8162C200.011 26.8186 199.013 25.4841 198.555 23.8125L201.386 23.0441C201.736 24.0956 202.411 24.9449 203.408 25.5919C204.406 26.212 205.485 26.5221 206.644 26.5221C207.777 26.5221 208.788 26.2255 209.678 25.6324C210.568 25.0123 211.013 24.2169 211.013 23.2463C211.013 22.4105 210.73 21.723 210.163 21.1838C209.597 20.6446 208.734 20.1728 207.575 19.7684L205.148 18.9191C203.206 18.2181 201.817 17.4363 200.981 16.5735C200.146 15.7108 199.728 14.6054 199.728 13.2574C199.728 11.6936 200.375 10.386 201.669 9.33456C202.99 8.28309 204.581 7.75735 206.442 7.75735C209.813 7.75735 212.213 9.25368 213.642 12.2463L210.689 13.0147Z" fill="white"/>
</svg>
