<svg width="22" height="21" viewBox="0 0 22 21" fill="none" xmlns="http://www.w3.org/2000/svg">
<path d="M9.27772 1.68328C9.75669 0.209181 11.8421 0.209184 12.3211 1.68328L13.6732 5.84458C13.8874 6.50382 14.5017 6.95016 15.1949 6.95016H19.5703C21.1203 6.95016 21.7647 8.93354 20.5108 9.84458L16.971 12.4164C16.4102 12.8238 16.1755 13.546 16.3897 14.2053L17.7418 18.3666C18.2208 19.8407 16.5336 21.0665 15.2797 20.1554L11.7399 17.5836C11.1791 17.1762 10.4197 17.1762 9.85896 17.5836L6.31914 20.1554C5.0652 21.0665 3.37803 19.8407 3.857 18.3666L5.20909 14.2053C5.42328 13.546 5.18863 12.8238 4.62785 12.4164L1.08804 9.84458C-0.165907 8.93354 0.478536 6.95016 2.02849 6.95016H6.40394C7.09711 6.95016 7.71144 6.50382 7.92563 5.84458L9.27772 1.68328Z" fill="url(#paint0_linear_564_81)"/>
<defs>
<linearGradient id="paint0_linear_564_81" x1="10.7994" y1="-3" x2="10.7994" y2="25.8" gradientUnits="userSpaceOnUse">
<stop stop-color="#FFCE50"/>
<stop offset="1" stop-color="#FE9D0B"/>
</linearGradient>
</defs>
</svg>
