<svg width="21" height="21" viewBox="0 0 21 21" fill="none" xmlns="http://www.w3.org/2000/svg">
<path d="M9.07851 1.68328C9.55747 0.209181 11.6429 0.209184 12.1219 1.68328L13.474 5.84458C13.6882 6.50382 14.3025 6.95016 14.9957 6.95016H19.3711C20.9211 6.95016 21.5655 8.93354 20.3116 9.84458L16.7718 12.4164C16.211 12.8238 15.9763 13.546 16.1905 14.2053L17.5426 18.3666C18.0216 19.8407 16.3344 21.0665 15.0805 20.1554L11.5407 17.5836C10.9799 17.1762 10.2205 17.1762 9.65974 17.5836L6.11992 20.1554C4.86598 21.0665 3.17881 19.8407 3.65778 18.3666L5.00987 14.2053C5.22407 13.546 4.98941 12.8238 4.42863 12.4164L0.888816 9.84458C-0.365126 8.93354 0.279317 6.95016 1.82927 6.95016H6.20473C6.89789 6.95016 7.51222 6.50382 7.72642 5.84458L9.07851 1.68328Z" fill="url(#paint0_linear_564_80)"/>
<defs>
<linearGradient id="paint0_linear_564_80" x1="10.6002" y1="-3" x2="10.6002" y2="25.8" gradientUnits="userSpaceOnUse">
<stop stop-color="#FFCE50"/>
<stop offset="1" stop-color="#FE9D0B"/>
</linearGradient>
</defs>
</svg>
