<svg width="19" height="16" viewBox="0 0 19 16" fill="none" xmlns="http://www.w3.org/2000/svg">
<path fill-rule="evenodd" clip-rule="evenodd" d="M18.6733 1.10396C18.6582 1.03692 18.6251 0.974957 18.5773 0.92434C18.5295 0.873731 18.4688 0.836263 18.4012 0.815739C18.1554 0.768496 17.9011 0.785994 17.6645 0.866424C17.6645 0.866424 1.27087 6.58472 0.334603 7.2179C0.133473 7.35407 0.0656495 7.4335 0.0321278 7.52655C-0.130024 7.98044 0.374361 8.17562 0.374361 8.17562L4.59966 9.51158C4.6711 9.52398 4.74457 9.51982 4.81404 9.49947C5.77448 8.91017 14.4808 3.57314 14.9867 3.39385C15.0647 3.37116 15.1247 3.39385 15.1091 3.45059C14.908 4.13521 7.38431 10.6206 7.34299 10.6599C7.32286 10.6759 7.30718 10.6965 7.29737 10.7199C7.28758 10.7433 7.28396 10.7687 7.28686 10.7938L6.89239 14.7972C6.89239 14.7972 6.72712 16.0431 8.01106 14.7972C8.9216 13.9128 9.79551 13.1805 10.2321 12.8242C11.6852 13.7978 13.2482 14.8743 13.9226 15.4379C14.036 15.5444 14.1704 15.6277 14.3177 15.6827C14.4651 15.7376 14.6224 15.7633 14.7801 15.7579C14.9744 15.7349 15.1569 15.6551 15.3032 15.529C15.4496 15.4029 15.5529 15.2365 15.5994 15.0521C15.5994 15.0521 18.5852 3.38477 18.685 1.82187C18.6951 1.67057 18.7084 1.57071 18.71 1.46556C18.7149 1.34397 18.7025 1.22231 18.6733 1.10396Z" fill="#DDDDDD"/>
</svg>
