<svg width="28" height="21" viewBox="0 0 28 21" fill="none" xmlns="http://www.w3.org/2000/svg">
<path d="M23.4363 1.74119C21.6639 0.917095 19.7889 0.331537 17.8606 0C17.6204 0.431504 17.3398 1.01187 17.1462 1.47358C15.0672 1.16293 13.0075 1.16293 10.9666 1.47358C10.7733 1.01196 10.4863 0.431504 10.2439 0C8.31381 0.331696 6.43711 0.918743 4.66381 1.7455C1.1351 7.04445 0.178498 12.2116 0.656741 17.3056C2.99722 19.0424 5.26538 20.0975 7.49532 20.7879C8.0495 20.0305 8.5394 19.2288 8.95994 18.3908C8.15929 18.0879 7.38745 17.7147 6.65356 17.2754C6.8467 17.1332 7.03527 16.985 7.21903 16.8309C11.666 18.8978 16.4979 18.8978 20.8919 16.8309C21.0765 16.9838 21.265 17.1321 21.4573 17.2754C20.7222 17.7158 19.9489 18.0899 19.1467 18.3931C19.5696 19.2344 20.0587 20.0369 20.6114 20.79C22.8433 20.0996 25.1136 19.0446 27.4542 17.3056C28.0153 11.4004 26.4954 6.28066 23.4363 1.74119ZM9.56582 14.1729C8.23084 14.1729 7.13604 12.9344 7.13604 11.4263C7.13604 9.91827 8.20751 8.67775 9.56582 8.67775C10.9242 8.67775 12.0189 9.91603 11.9956 11.4263C11.9977 12.9344 10.9242 14.1729 9.56582 14.1729ZM18.545 14.1729C17.21 14.1729 16.1153 12.9344 16.1153 11.4263C16.1153 9.91827 17.1868 8.67775 18.545 8.67775C19.9034 8.67775 20.9982 9.91603 20.9747 11.4263C20.9747 12.9344 19.9034 14.1729 18.545 14.1729Z" fill="#DDDDDD"/>
</svg>
