<svg width="28" height="21" viewBox="0 0 28 21" fill="none" xmlns="http://www.w3.org/2000/svg">
<path fill-rule="evenodd" clip-rule="evenodd" d="M27.3711 4.45499C27.3711 4.45499 27.1459 2.35125 26.245 1.485C25.2315 0.2475 24.1053 0.2475 23.5423 0.2475C19.7135 5.53205e-08 14.0828 0 14.0828 0C14.0828 0 8.45221 5.53205e-08 4.62339 0.2475C4.06032 0.371249 2.9342 0.37125 1.92069 1.485C1.1324 2.35125 0.794561 4.45499 0.794561 4.45499C0.794561 4.45499 0.569336 6.80624 0.569336 9.28127V11.5088C0.569336 13.86 0.794561 16.335 0.794561 16.335C0.794561 16.335 1.01979 18.4388 1.92069 19.305C2.9342 20.5425 4.28555 20.4187 4.84861 20.5425C6.98825 20.79 14.0828 20.79 14.0828 20.79C14.0828 20.79 19.7135 20.79 23.5423 20.4188C24.1053 20.295 25.2315 20.295 26.245 19.1813C27.0333 18.315 27.3711 16.2113 27.3711 16.2113C27.3711 16.2113 27.5963 13.86 27.5963 11.385V9.15752C27.5963 6.80624 27.3711 4.45499 27.3711 4.45499ZM11.2675 14.2313V5.93999L18.5873 10.1475L11.2675 14.2313Z" fill="#DDDDDD"/>
</svg>
