<svg width="22" height="21" viewBox="0 0 22 21" fill="none" xmlns="http://www.w3.org/2000/svg">
<path d="M19.2691 0C19.8817 0 20.4692 0.24337 20.9025 0.676587C21.3357 1.10979 21.5791 1.69735 21.5791 2.31V18.48C21.5791 19.0926 21.3357 19.6802 20.9025 20.1134C20.4692 20.5466 19.8817 20.79 19.2691 20.79H3.09906C2.48642 20.79 1.89886 20.5466 1.46565 20.1134C1.03243 19.6802 0.789062 19.0926 0.789062 18.48V2.31C0.789062 1.69735 1.03243 1.10979 1.46565 0.676587C1.89886 0.24337 2.48642 0 3.09906 0H19.2691ZM18.6916 17.9025V11.781C18.6916 10.7824 18.2948 9.82466 17.5888 9.11849C16.8826 8.41244 15.9249 8.0157 14.9263 8.0157C13.9445 8.0157 12.8011 8.6163 12.2467 9.5172V8.23515H9.02421V17.9025H12.2467V12.2084C12.2467 11.319 12.9628 10.5914 13.8521 10.5914C14.281 10.5914 14.6923 10.7617 14.9954 11.065C15.2988 11.3682 15.4691 11.7795 15.4691 12.2084V17.9025H18.6916ZM5.27046 6.4218C5.78508 6.4218 6.27864 6.21737 6.64253 5.85347C7.00643 5.48958 7.21086 4.99602 7.21086 4.4814C7.21086 3.40725 6.34461 2.52945 5.27046 2.52945C4.75277 2.52945 4.25629 2.7351 3.89023 3.10116C3.52416 3.46723 3.31851 3.96371 3.31851 4.4814C3.31851 5.55555 4.19631 6.4218 5.27046 6.4218ZM6.87591 17.9025V8.23515H3.67656V17.9025H6.87591Z" fill="#DDDDDD"/>
</svg>
