<svg width="32" height="26" viewBox="0 0 32 26" fill="none" xmlns="http://www.w3.org/2000/svg">
<path d="M29.2852 21.9344C27.0411 24.368 23.6454 25.6016 19.194 25.6016H17.5945V21.0912L18.8805 20.8336C21.0718 20.3952 22.5961 19.5328 23.4118 18.2672C23.8375 17.5854 24.0789 16.8047 24.1124 16.0016H19.194C18.7698 16.0016 18.3629 15.833 18.063 15.5329C17.763 15.2329 17.5945 14.8259 17.5945 14.4016V3.20156C17.5945 1.43676 19.0292 0.00156212 20.7935 0.00156212H30.3904C30.8147 0.00156212 31.2215 0.170132 31.5215 0.47019C31.8214 0.770248 31.9899 1.17722 31.9899 1.60156V9.60156L31.9851 14.272C31.9995 14.4496 32.3034 18.6576 29.2852 21.9344ZM3.19899 0.00156212H12.796C13.2202 0.00156212 13.627 0.170132 13.927 0.47019C14.227 0.770248 14.3955 1.17722 14.3955 1.60156V9.60156L14.3907 14.272C14.4051 14.4496 14.709 18.6576 11.6907 21.9344C9.44663 24.368 6.0509 25.6016 1.5995 25.6016H0V21.0912L1.286 20.8336C3.47731 20.3952 5.00163 19.5328 5.81737 18.2672C6.24301 17.5854 6.48441 16.8047 6.51795 16.0016H1.5995C1.17528 16.0016 0.768444 15.833 0.468481 15.5329C0.168516 15.2329 0 14.8259 0 14.4016V3.20156C0 1.43676 1.43475 0.00156212 3.19899 0.00156212Z" fill="#204ECF"/>
</svg>
