<svg width="24" height="21" viewBox="0 0 24 21" fill="none" xmlns="http://www.w3.org/2000/svg">
<path fill-rule="evenodd" clip-rule="evenodd" d="M23.4354 10.1892C23.4354 8.54244 22.1967 7.20445 20.6721 7.20445C20.0051 7.20445 19.4333 7.41029 18.9569 7.82197C17.2417 6.68985 15.1454 5.9694 12.8585 5.86648L14.0019 1.85257L17.2417 2.67594C17.337 3.91099 18.2899 4.94019 19.5286 4.94019C20.7674 4.94019 21.8155 3.80807 21.8155 2.4701C21.8155 1.13213 20.7674 0 19.5286 0C18.671 0 17.9087 0.514604 17.5276 1.33797L13.7161 0.411683C13.4302 0.308762 13.0491 0.514604 12.9538 0.823366L11.5245 5.86648C9.14228 5.9694 6.76009 6.58693 5.04492 7.82197C4.56848 7.41029 3.99676 7.20445 3.32974 7.20445C1.80514 7.20445 0.566406 8.54244 0.566406 10.1892C0.566406 11.2184 1.04284 12.1447 1.70986 12.6593C1.70986 12.8651 1.70986 13.1739 1.70986 13.3797C1.70986 15.4381 2.85331 17.2907 4.85434 18.7316C6.76009 20.0696 9.33286 20.79 12.0009 20.79C14.669 20.79 17.2417 20.0696 19.1475 18.7316C21.1485 17.2907 22.292 15.4381 22.292 13.3797C22.292 13.1739 22.292 12.968 22.292 12.7622C22.959 12.1447 23.4354 11.2184 23.4354 10.1892ZM19.6239 1.33797C20.1956 1.33797 20.6721 1.85257 20.6721 2.4701C20.6721 3.08762 20.1956 3.60222 19.6239 3.60222C19.0522 3.60222 18.5757 3.08762 18.5757 2.4701C18.5757 1.85257 19.0522 1.33797 19.6239 1.33797ZM7.04596 12.0417C7.04596 11.1155 7.80826 10.395 8.57056 10.395C9.42814 10.395 10.0952 11.2184 10.0952 12.0417C10.0952 12.8651 9.42814 13.6885 8.57056 13.6885C7.80826 13.6885 7.04596 12.968 7.04596 12.0417ZM15.8124 16.879C15.0501 17.7024 13.8114 18.1141 12.0962 18.1141C10.381 18.1141 9.14228 17.7024 8.37998 16.879C8.09412 16.5703 8.09412 16.1586 8.37998 15.9527C8.66584 15.644 9.04699 15.644 9.23757 15.9527C9.80929 16.5703 10.7622 16.879 12.0962 16.879C13.4302 16.879 14.3831 16.5703 14.9548 15.9527C15.2407 15.644 15.6218 15.644 15.8124 15.9527C16.003 16.2615 16.003 16.6732 15.8124 16.879ZM15.4313 13.6885C14.5737 13.6885 13.8114 12.968 13.8114 12.0417C13.8114 11.1155 14.5737 10.395 15.4313 10.395C16.2888 10.395 16.9559 11.2184 16.9559 12.0417C16.9559 12.8651 16.2888 13.6885 15.4313 13.6885Z" fill="#DDDDDD"/>
</svg>
