<svg width="27" height="21" viewBox="0 0 27 21" fill="none" xmlns="http://www.w3.org/2000/svg">
<path fill-rule="evenodd" clip-rule="evenodd" d="M26.5143 0.436342C26.4933 0.343231 26.4472 0.25717 26.3809 0.186869C26.3145 0.116578 26.2301 0.0645384 26.1364 0.0360335C25.795 -0.0295813 25.4417 -0.00527897 25.1132 0.106429C25.1132 0.106429 2.3442 8.0485 1.04383 8.92793C0.76448 9.11705 0.670281 9.22737 0.623724 9.35661C0.398513 9.98701 1.09905 10.2581 1.09905 10.2581L6.96752 12.1136C7.06674 12.1308 7.16878 12.125 7.26527 12.0968C8.59921 11.2783 20.6913 3.86575 21.394 3.61674C21.5022 3.58522 21.5856 3.61674 21.564 3.69554C21.2846 4.64641 10.8351 13.6539 10.7777 13.7085C10.7497 13.7307 10.728 13.7594 10.7143 13.7918C10.7007 13.8243 10.6957 13.8596 10.6997 13.8945L10.1519 19.4547C10.1519 19.4547 9.92233 21.1851 11.7056 19.4547C12.9702 18.2264 14.184 17.2094 14.7903 16.7145C16.8085 18.0667 18.9794 19.5618 19.916 20.3446C20.0736 20.4925 20.2602 20.6082 20.4649 20.6846C20.6695 20.7609 20.888 20.7965 21.107 20.789C21.3769 20.7571 21.6303 20.6462 21.8336 20.4711C22.0369 20.2959 22.1804 20.0649 22.245 19.8088C22.245 19.8088 26.3919 3.60414 26.5305 1.43343C26.5446 1.2233 26.563 1.08461 26.5651 0.938566C26.572 0.76969 26.5548 0.60071 26.5143 0.436342Z" fill="#DDDDDD"/>
</svg>
